<?xml version="1.0" encoding="utf-8"?>
<!-- Generator: Adobe Illustrator 19.2.0, SVG Export Plug-In . SVG Version: 6.00 Build 0)  -->
<svg version="1.1" id="Layer_1" xmlns="http://www.w3.org/2000/svg" xmlns:xlink="http://www.w3.org/1999/xlink" x="0px" y="0px"
	 viewBox="0 0 3000 1000" style="enable-background:new 0 0 3000 1000;" xml:space="preserve">
<style type="text/css">
	.st0{opacity:0.32;}
	.st1{fill:none;stroke:#231F20;stroke-width:5;stroke-linecap:round;stroke-miterlimit:10;}
	.st2{opacity:0.42;}
	.st3{fill:none;}
	.st4{fill-rule:evenodd;clip-rule:evenodd;fill:#231F20;}
</style>
<g class="st0">
	<g>
		<path class="st1" d="M1500,172.4"/>
	</g>
</g>
<g class="st2">
	<g>
		<g>
			<g>
				<g>
					<g>
						<path class="st3" d="M1537,994.1c0,0-0.8-4.4-1.9-11.1c-0.6-3.3-1.4-7.2-2.2-11.3c-0.9-4.1-1.9-8.5-2.8-12.9
							c-1.1-4.4-2.1-8.8-3.2-12.9c-1.1-4.1-2.2-7.9-3.1-11.2c-2-6.5-3.3-10.9-3.3-10.9l-71.4,22.9c0,0,1.1,3.6,2.8,9
							c0.8,2.7,1.6,5.9,2.6,9.3c0.9,3.4,1.8,7.1,2.7,10.8c0.8,3.7,1.7,7.4,2.4,10.9c0.7,3.5,1.3,6.8,1.9,9.6c1,5.7,1.6,9.5,1.6,9.5
							L1537,994.1z"/>
					</g>
					<path class="st4" d="M1487.1,952.5l7.2-2c0,0-0.8-3-1.7-6c-0.9-3-1.8-6-1.8-6l-7.2,2.2c0,0,0.9,2.9,1.8,5.9
						C1486.3,949.6,1487.1,952.5,1487.1,952.5z"/>
					<path class="st4" d="M1492.4,973.9l7.3-1.6c0,0-0.7-3-1.3-6.1c-0.7-3-1.5-6.1-1.5-6.1l-7.3,1.8c0,0,0.7,3,1.5,6
						C1491.7,970.9,1492.4,973.9,1492.4,973.9z"/>
					<path class="st4" d="M1496.5,995.5l7.4-1.3c0,0-0.5-3.1-1.1-6.2c-0.6-3.1-1.2-6.1-1.2-6.1l-7.4,1.4c0,0,0.6,3,1.2,6
						C1496,992.4,1496.5,995.5,1496.5,995.5z"/>
				</g>
			</g>
			<g>
				<g>
					<g>
						<path class="st3" d="M1520.5,923.8c0,0-1.5-4.3-3.7-10.8c-1.1-3.2-2.6-7-4.1-11c-1.5-4-3.3-8.3-5-12.5
							c-1.8-4.2-3.7-8.4-5.5-12.4c-1.9-3.9-3.7-7.5-5.2-10.7c-1.5-3.1-3-5.6-3.9-7.4c-1-1.8-1.5-2.8-1.5-2.8l-65.9,35.9
							c0,0,0.4,0.8,1.2,2.2c0.7,1.4,1.9,3.4,3.1,5.9c1.2,2.5,2.6,5.4,4.1,8.5c1.4,3.2,3,6.5,4.4,10c1.4,3.5,2.9,6.9,4.1,10.2
							c1.2,3.3,2.4,6.3,3.3,9c1.8,5.3,3,8.9,3,8.9L1520.5,923.8z"/>
					</g>
					<path class="st4" d="M1464.2,890.6l6.8-3.2c0,0-1.4-2.8-2.8-5.6c-0.3-0.7-0.7-1.4-1-2.1c-0.3-0.6-0.7-1.3-0.9-1.8
						c-0.6-1-0.9-1.7-0.9-1.7l-6.6,3.5c0,0,0.4,0.7,0.9,1.7c0.3,0.5,0.6,1.1,0.9,1.7c0.3,0.6,0.7,1.3,1,2
						C1462.8,887.9,1464.2,890.6,1464.2,890.6z"/>
					<path class="st4" d="M1473.1,910.8l7-2.8c0,0-1.2-2.9-2.4-5.8c-0.6-1.5-1.3-2.9-1.7-3.9c-0.5-1.1-0.8-1.8-0.8-1.8l-6.9,3
						c0,0,0.3,0.7,0.8,1.7c0.5,1.1,1.1,2.4,1.7,3.9C1471.9,907.9,1473.1,910.8,1473.1,910.8z"/>
					<path class="st4" d="M1480.6,931.3l7.1-2.4c0,0-1-3-2-5.9c-1.1-2.9-2.2-5.9-2.2-5.9l-7,2.6c0,0,1.1,2.9,2.1,5.8
						C1479.7,928.4,1480.6,931.3,1480.6,931.3z"/>
				</g>
			</g>
			<g>
				<g>
					<g>
						<path class="st3" d="M1491.6,856.2c0,0-0.5-1-1.5-2.8c-1-1.8-2.5-4.3-4.2-7.3c-0.9-1.5-1.8-3.2-2.9-4.8
							c-1.1-1.7-2.2-3.5-3.4-5.3c-1.2-1.8-2.3-3.8-3.6-5.7c-1.3-1.9-2.6-3.8-3.9-5.7c-1.3-1.9-2.6-3.9-4-5.7c-1.4-1.8-2.7-3.7-4-5.4
							c-1.3-1.8-2.6-3.5-3.8-5c-1.3-1.6-2.4-3.1-3.5-4.4c-2.2-2.8-4.1-5-5.4-6.5c-1.3-1.6-2.1-2.5-2.1-2.5l-56.7,49
							c0,0,0.6,0.7,1.6,1.9c1,1.2,2.5,2.9,4.2,5.1c0.9,1.1,1.8,2.2,2.8,3.4c1,1.2,1.9,2.6,3,4c1,1.4,2.1,2.8,3.2,4.2
							c1.1,1.4,2.1,3,3.1,4.5c1,1.5,2.1,3,3.1,4.5c1,1.5,1.9,3,2.8,4.5c0.9,1.5,1.8,2.9,2.6,4.2c0.8,1.3,1.6,2.7,2.3,3.8
							c1.4,2.4,2.5,4.4,3.3,5.8c0.8,1.4,1.2,2.2,1.2,2.2L1491.6,856.2z"/>
					</g>
					<path class="st4" d="M1429.8,834.4l5.9-4.6c0,0-0.1-0.2-0.3-0.4c-0.2-0.3-0.5-0.7-0.9-1.1c-0.7-0.9-1.7-2.1-2.7-3.4
						c-1-1.2-2-2.4-2.7-3.4c-0.8-0.9-1.3-1.5-1.3-1.5l-5.8,4.8c0,0,0.5,0.6,1.2,1.5c0.7,0.9,1.7,2.1,2.6,3.3c1,1.2,1.9,2.4,2.6,3.3
						c0.4,0.4,0.6,0.8,0.8,1.1C1429.7,834.3,1429.8,834.4,1429.8,834.4z"/>
					<path class="st4" d="M1442.6,852.3l6.3-4.1c0,0-1.8-2.6-3.5-5.2c-0.9-1.3-1.8-2.6-2.4-3.6c-0.7-1-1.1-1.6-1.1-1.6l-6.1,4.4
						c0,0,0.5,0.6,1.1,1.6c0.6,0.9,1.5,2.2,2.4,3.5C1440.8,849.8,1442.6,852.3,1442.6,852.3z"/>
					<path class="st4" d="M1454,871l6.5-3.7c0,0-1.6-2.7-3.1-5.4c-1.5-2.7-3.2-5.4-3.2-5.4l-6.4,3.9c0,0,1.7,2.6,3.2,5.2
						C1452.4,868.4,1454,871,1454,871z"/>
				</g>
			</g>
			<g>
				<g>
					<g>
						<path class="st3" d="M1449.4,794.9c0,0-0.7-0.9-2.1-2.4c-1.4-1.5-3.3-3.7-5.7-6.3c-4.8-5.2-11.4-11.9-18.3-18.2
							c-6.9-6.3-14-12.3-19.4-16.6c-2.7-2.1-4.9-3.9-6.5-5.1c-1.6-1.2-2.5-1.9-2.5-1.9l-45.2,59.8c0,0,0.8,0.6,2.1,1.6
							c1.3,1,3.2,2.5,5.4,4.2c4.4,3.5,10.1,8.2,15.4,13.1c5.3,4.9,10.4,10.1,14.1,14c1.8,2,3.3,3.7,4.4,4.9c1.1,1.2,1.6,1.9,1.6,1.9
							L1449.4,794.9z"/>
					</g>
					<path class="st4" d="M1384.1,787.1l4.8-5.8c0,0-2.4-2-4.9-4c-2.5-1.9-4.9-3.9-4.9-3.9l-4.6,5.9c0,0,2.4,1.9,4.8,3.8
						C1381.7,785.1,1384.1,787.1,1384.1,787.1z"/>
					<path class="st4" d="M1400.5,801.7l5.2-5.4c0,0-2.3-2.2-4.6-4.3c-2.3-2.1-4.7-4.2-4.7-4.2l-5,5.6c0,0,2.3,2,4.6,4.1
						C1398.3,799.6,1400.5,801.7,1400.5,801.7z"/>
					<path class="st4" d="M1415.7,817.4l5.6-5c0,0-0.5-0.6-1.3-1.5c-0.8-0.9-1.8-2.1-2.9-3.2c-2.2-2.3-4.3-4.6-4.3-4.6l-5.4,5.2
						c0,0,2.1,2.2,4.2,4.4c1.1,1.1,2.1,2.2,2.8,3.1C1415.2,816.8,1415.7,817.4,1415.7,817.4z"/>
				</g>
			</g>
			<g>
				<g>
					<g>
						<path class="st3" d="M1394.8,744.4c0,0-0.9-0.7-2.5-1.9c-1.6-1.1-3.8-2.8-6.5-4.8c-5.4-3.9-12.4-8.8-19.2-13.6
							c-6.8-4.8-13.3-9.3-17.9-12.8c-2.3-1.7-4.3-3.1-5.5-4.1c-1.3-1-2.1-1.6-2.1-1.6l-45.9,59.3c0,0,0.9,0.7,2.5,1.9
							c1.6,1.2,3.8,2.9,6.5,4.9c5.4,4,12.5,9,19.3,13.8c6.8,4.8,13.4,9.4,18.1,12.9c2.4,1.7,4.3,3.2,5.7,4.2c1.3,1,2.1,1.6,2.1,1.6
							L1394.8,744.4z"/>
					</g>
					<path class="st4" d="M1330.6,747.8l4.4-6.1c0,0-2.5-1.8-5-3.6c-2.5-1.8-4.9-3.6-4.9-3.6l-4.5,6c0,0,2.5,1.9,5,3.7
						C1328.1,746,1330.6,747.8,1330.6,747.8z"/>
					<polygon class="st4" points="1348.7,760.6 1353,754.5 1342.9,747.4 1338.6,753.5 					"/>
					<path class="st4" d="M1366.6,773.4l4.5-6c0,0-0.6-0.5-1.6-1.2c-0.9-0.7-2.2-1.6-3.5-2.5c-2.5-1.8-5-3.6-5-3.6l-4.4,6.1
						c0,0,2.5,1.8,5,3.6c1.2,0.9,2.5,1.8,3.4,2.5C1366,773,1366.6,773.4,1366.6,773.4z"/>
				</g>
			</g>
			<g>
				<g>
					<g>
						<path class="st3" d="M1341.2,705.7c0,0-3-2.3-7.2-5.8c-4.3-3.5-9.6-8.2-14.6-13.1c-5-4.9-9.6-10.1-13-14.1c-1.7-2-3-3.7-4-4.9
							c-0.5-0.6-0.8-1.1-1.1-1.4c-0.2-0.3-0.4-0.5-0.4-0.5l-59.7,45.4c0,0,0.2,0.2,0.5,0.7c0.3,0.5,0.8,1.1,1.5,1.9
							c1.3,1.6,3.2,4,5.5,6.8c4.6,5.6,11.2,12.8,18,19.6c6.9,6.8,14,13,19.5,17.5c5.4,4.5,9,7.2,9,7.2L1341.2,705.7z"/>
					</g>
					<path class="st4" d="M1280.1,703.7l5.6-5c0,0-0.5-0.6-1.2-1.4c-0.7-0.9-1.7-2-2.7-3.2c-1-1.1-1.9-2.3-2.6-3.2
						c-0.7-0.9-1.2-1.5-1.2-1.5l-5.9,4.7c0,0,0.5,0.6,1.2,1.5c0.7,0.9,1.7,2.1,2.7,3.3c1,1.2,2,2.4,2.8,3.3
						C1279.6,703.2,1280.1,703.7,1280.1,703.7z"/>
					<path class="st4" d="M1295.7,719.8l5.1-5.5c0,0-0.1-0.1-0.4-0.4c-0.2-0.2-0.6-0.5-1-0.9c-0.8-0.8-1.9-1.8-3-2.9
						c-1.1-1-2.2-2.1-2.9-2.9c-0.8-0.8-1.3-1.4-1.3-1.4l-5.4,5.2c0,0,0.5,0.6,1.4,1.4c0.8,0.8,1.9,2,3,3c1.1,1.1,2.2,2.2,3.1,3
						c0.4,0.4,0.8,0.7,1,1C1295.6,719.6,1295.7,719.8,1295.7,719.8z"/>
					<path class="st4" d="M1312.6,734.3l4.7-5.9c0,0-2.4-1.9-4.7-3.8c-2.4-1.9-4.6-3.9-4.6-3.9l-4.9,5.7c0,0,2.3,2.1,4.8,4
						C1310.2,732.4,1312.6,734.3,1312.6,734.3z"/>
				</g>
			</g>
			<g>
				<g>
					<g>
						<path class="st3" d="M1301,665.9c0,0-0.5-0.7-1.4-1.9c-0.5-0.6-1-1.4-1.7-2.2c-0.6-0.9-1.3-1.9-2.1-3
							c-3.1-4.3-6.8-10.4-10.4-16.5c-3.4-6.2-6.7-12.6-8.9-17.5c-1.1-2.5-2.1-4.5-2.6-5.9c-0.6-1.5-0.9-2.3-0.9-2.3l-69.3,28.6
							c0,0,0.4,1.1,1.2,3c0.8,1.9,2,4.6,3.5,7.8c2.9,6.5,7.2,15,11.9,23.3c4.8,8.3,9.8,16.3,14,22.2c1,1.5,2,2.8,2.8,4
							c0.9,1.2,1.6,2.2,2.3,3.1c1.3,1.7,2,2.7,2,2.7L1301,665.9z"/>
					</g>
					<path class="st4" d="M1243,647.8l6.7-3.3c0,0-0.3-0.7-0.8-1.7c-0.5-1-1.1-2.4-1.8-3.8c-1.2-2.8-2.5-5.5-2.5-5.5l-6.9,3
						c0,0,1.3,2.8,2.6,5.7c0.6,1.4,1.3,2.9,1.8,3.9C1242.7,647.1,1243,647.8,1243,647.8z"/>
					<path class="st4" d="M1253.7,667.5l6.4-3.9c0,0-1.5-2.6-3.1-5.2c-1.4-2.7-2.9-5.3-2.9-5.3l-6.6,3.5c0,0,1.5,2.7,3,5.5
						C1252.1,664.8,1253.7,667.5,1253.7,667.5z"/>
					<path class="st4" d="M1266,686.1l6.1-4.4c0,0-0.1-0.2-0.3-0.4c-0.2-0.3-0.5-0.6-0.8-1.1c-0.6-0.9-1.5-2.2-2.4-3.4
						c-1.8-2.5-3.4-5-3.4-5l-6.3,4.1c0,0,1.7,2.6,3.5,5.2c0.9,1.3,1.8,2.6,2.4,3.5c0.3,0.5,0.6,0.9,0.8,1.1
						C1265.9,686,1266,686.1,1266,686.1z"/>
				</g>
			</g>
			<g>
				<g>
					<g>
						<path class="st3" d="M1273,616.6c0,0-0.3-0.8-0.9-2.3c-0.3-0.7-0.7-1.6-1.1-2.6c-0.4-1-0.8-2.2-1.3-3.5
							c-0.9-2.5-2.1-5.5-3.1-8.8c-0.5-1.6-1.1-3.3-1.6-5c-0.5-1.7-1-3.5-1.5-5.2c-0.5-1.8-1-3.5-1.5-5.2c-0.4-1.8-0.8-3.5-1.3-5.2
							c-0.4-1.7-0.8-3.3-1.2-4.8c-0.3-1.6-0.6-3-0.9-4.4c-0.5-2.7-1.1-5-1.3-6.6c-0.3-1.6-0.4-2.5-0.4-2.5l-73.8,13.1
							c0,0,0.2,1.1,0.5,3.1c0.3,2,1,4.8,1.6,8.2c0.4,1.7,0.7,3.5,1.1,5.5c0.4,1.9,1,4,1.5,6.1c0.5,2.1,1.1,4.3,1.6,6.5
							c0.6,2.2,1.2,4.5,1.9,6.7c0.6,2.2,1.2,4.5,1.9,6.7c0.7,2.2,1.4,4.4,2.1,6.4c1.3,4.2,2.8,8.1,4,11.4c0.6,1.7,1.2,3.2,1.7,4.5
							c0.5,1.3,1,2.5,1.4,3.5c0.8,1.9,1.2,3,1.2,3L1273,616.6z"/>
					</g>
					<path class="st4" d="M1220.9,584.6l7.3-1.7c0,0,0-0.2-0.1-0.5c-0.1-0.3-0.2-0.8-0.3-1.3c-0.2-1.1-0.5-2.6-0.8-4.1
						c-0.6-3-1.2-6-1.2-6l-7.4,1.4c0,0,0.6,3,1.3,6.1c0.3,1.5,0.6,3,0.9,4.2c0.1,0.6,0.2,1,0.3,1.4
						C1220.8,584.4,1220.9,584.6,1220.9,584.6z"/>
					<path class="st4" d="M1226.6,606.2l7.2-2.2c0,0-0.2-0.7-0.5-1.8c-0.3-1.1-0.7-2.6-1.1-4c-0.4-1.5-0.8-2.9-1.1-4
						c-0.2-0.5-0.3-1-0.4-1.3c-0.1-0.3-0.1-0.5-0.1-0.5l-7.3,1.9c0,0,0,0.2,0.1,0.5c0.1,0.3,0.2,0.8,0.4,1.4
						c0.3,1.1,0.7,2.6,1.2,4.1c0.4,1.5,0.8,3,1.2,4.1C1226.4,605.4,1226.6,606.2,1226.6,606.2z"/>
					<path class="st4" d="M1233.9,627.2l7-2.7c0,0-0.1-0.2-0.2-0.5c-0.1-0.3-0.3-0.7-0.5-1.3c-0.4-1.1-0.9-2.5-1.4-3.9
						c-0.5-1.4-1-2.9-1.4-3.9c-0.2-0.5-0.4-1-0.5-1.3c-0.1-0.3-0.2-0.5-0.2-0.5l-7.1,2.4c0,0,0.1,0.2,0.2,0.5
						c0.1,0.3,0.3,0.8,0.5,1.3c0.4,1.1,0.9,2.6,1.5,4c0.5,1.5,1.1,2.9,1.5,4c0.2,0.6,0.4,1,0.5,1.3S1233.9,627.2,1233.9,627.2z"/>
				</g>
			</g>
			<g>
				<g>
					<g>
						<path class="st3" d="M1257,560.5c0,0-0.2-0.9-0.4-2.5c-0.1-0.8-0.3-1.8-0.5-2.9c-0.1-0.6-0.2-1.2-0.3-1.8
							c-0.1-0.6-0.2-1.3-0.3-2c-0.4-2.8-0.8-6-1.3-9.5c-0.4-3.5-0.7-7.3-1.1-11c-0.3-3.8-0.5-7.6-0.8-11.1c-0.2-1.8-0.2-3.4-0.2-4.9
							c-0.1-1.5-0.1-3-0.2-4.3c-0.1-2.7-0.3-4.9-0.1-6.5c0.1-1.6,0.1-2.5,0.1-2.5l-75-1.3c0,0,0,1.2-0.1,3.2c-0.1,2.1,0,5,0.1,8.6
							c0.1,1.8,0.1,3.7,0.2,5.7c0.1,2,0.1,4.2,0.3,6.3c0.3,4.2,0.6,8.8,0.9,13.3c0.5,4.5,0.9,9.1,1.4,13.3c0.6,4.3,1.1,8.2,1.6,11.6
							c0.1,0.9,0.2,1.7,0.3,2.4c0.1,0.8,0.3,1.5,0.4,2.2c0.2,1.4,0.4,2.6,0.6,3.6c0.3,2,0.5,3.1,0.5,3.1L1257,560.5z"/>
					</g>
					<polygon class="st4" points="1212,518.2 1219.5,517.9 1219.1,505.8 1211.6,505.7 					"/>
					<path class="st4" d="M1213.7,540.5l7.5-0.8c0,0-0.3-3-0.6-6.1c-0.1-1.5-0.2-3-0.3-4.2c-0.1-1.1-0.1-1.9-0.1-1.9l-7.5,0.5
						c0,0,0.1,0.8,0.1,1.9c0.1,1.2,0.2,2.7,0.3,4.3C1213.4,537.4,1213.7,540.5,1213.7,540.5z"/>
					<path class="st4" d="M1216.6,562.5l7.4-1.2c0,0-0.1-0.8-0.3-1.9c-0.2-1.1-0.4-2.6-0.6-4.1c-0.4-3-0.8-6-0.8-6l-7.4,1
						c0,0,0.4,3.1,0.8,6.2c0.2,1.5,0.4,3.1,0.6,4.2C1216.4,561.7,1216.6,562.5,1216.6,562.5z"/>
				</g>
			</g>
			<g>
				<g>
					<g>
						<path class="st3" d="M1251.9,501.5c0,0,0.1-3.6,0.4-9c0.2-2.8,0.4-6.2,0.7-9.7c0.1-1.8,0.3-3.6,0.5-5.5
							c0.2-1.9,0.4-3.7,0.6-5.6c0.1-0.9,0.2-1.9,0.3-2.8c0.1-0.9,0.2-1.9,0.4-2.8c0.2-1.8,0.5-3.6,0.7-5.4c0.4-3.5,1-6.7,1.5-9.5
							c0.5-2.8,0.8-5.1,1.2-6.7c0.3-1.6,0.5-2.5,0.5-2.5l-73.6-14.5c0,0-0.2,1.1-0.6,3.1c-0.4,2-0.8,4.8-1.4,8.2
							c-0.6,3.4-1.3,7.3-1.8,11.6c-0.3,2.1-0.6,4.3-0.9,6.5c-0.1,1.1-0.3,2.2-0.4,3.4c-0.1,1.1-0.2,2.3-0.3,3.4
							c-0.2,2.3-0.4,4.5-0.7,6.7c-0.2,2.2-0.5,4.4-0.6,6.5c-0.3,4.2-0.5,8.2-0.8,11.5c-0.1,0.8-0.1,1.7-0.1,2.5
							c0,0.8-0.1,1.6-0.1,2.3c-0.1,1.4-0.1,2.7-0.1,3.7c-0.1,2.1-0.1,3.2-0.1,3.2L1251.9,501.5z"/>
					</g>
					<polygon class="st4" points="1216,451.4 1223.4,452.5 1225.4,440.4 1218,439.1 					"/>
					<path class="st4" d="M1213.4,473.5l7.5,0.7c0,0,0.3-3,0.6-6.1c0.3-3,0.7-6.1,0.7-6.1l-7.4-0.9c0,0-0.4,3.1-0.7,6.2
						C1213.7,470.4,1213.4,473.5,1213.4,473.5z"/>
					<path class="st4" d="M1211.9,495.7l7.5,0.3c0,0,0-0.8,0.1-1.9c0-1.1,0.1-2.7,0.2-4.2c0.2-3,0.4-6.1,0.4-6.1l-7.5-0.5
						c0,0-0.2,3.1-0.4,6.2c-0.1,1.5-0.2,3.1-0.2,4.3C1211.9,494.9,1211.9,495.7,1211.9,495.7z"/>
				</g>
			</g>
			<g>
				<g>
					<g>
						<path class="st3" d="M1258.4,442c0,0,0.2-0.9,0.5-2.5c0.3-1.6,0.7-3.9,1.4-6.6c0.7-2.7,1.3-5.9,2.2-9.2
							c0.5-1.7,0.9-3.4,1.4-5.1c0.5-1.7,0.9-3.5,1.5-5.3c1.1-3.5,2.1-7,3.3-10.2c1.2-3.2,2.2-6.2,3.2-8.7c1-2.5,1.8-4.6,2.4-6.1
							c0.6-1.4,1-2.3,1-2.3l-68.8-29.8c0,0-0.5,1.1-1.3,3c-0.8,1.9-1.9,4.6-3.2,7.9c-2.6,6.6-5.7,15.4-8.4,24.3
							c-0.7,2.2-1.3,4.5-1.9,6.7c-0.6,2.2-1.2,4.4-1.8,6.5c-1.1,4.2-2,8.1-2.8,11.5c-0.8,3.4-1.3,6.2-1.8,8.2
							c-0.4,2-0.6,3.1-0.6,3.1L1258.4,442z"/>
					</g>
					<path class="st4" d="M1232.2,386.4l7,2.6c0,0,0.3-0.7,0.6-1.8c0.4-1.1,0.9-2.5,1.5-3.9c1.1-2.8,2.2-5.6,2.2-5.6l-6.9-2.9
						c0,0-1.2,2.9-2.3,5.8c-0.6,1.4-1.2,2.9-1.5,4C1232.5,385.6,1232.2,386.4,1232.2,386.4z"/>
					<path class="st4" d="M1225.4,407.6l7.2,2c0,0,0.2-0.7,0.5-1.8c0.2-0.5,0.3-1.2,0.5-1.9c0.2-0.7,0.4-1.4,0.7-2.1
						c0.9-2.9,1.8-5.8,1.8-5.8l-7.1-2.3c0,0-0.9,3-1.9,5.9c-0.2,0.7-0.5,1.5-0.7,2.2c-0.2,0.7-0.4,1.4-0.5,1.9
						C1225.6,406.9,1225.4,407.6,1225.4,407.6z"/>
					<path class="st4" d="M1220,429.2l7.3,1.6c0,0,0.2-0.7,0.4-1.9c0.2-1.1,0.6-2.6,0.9-4.1c0.7-3,1.4-5.9,1.4-5.9l-7.3-1.8
						c0,0-0.7,3-1.4,6.1c-0.4,1.5-0.7,3-1,4.2C1220.2,428.5,1220,429.2,1220,429.2z"/>
				</g>
			</g>
			<g>
				<g>
					<g>
						<path class="st3" d="M1275.5,386.1c0,0,0.4-0.8,1-2.3c0.6-1.4,1.5-3.5,2.7-5.9c1.2-2.4,2.5-5.3,4.1-8.2c0.8-1.5,1.6-3,2.4-4.6
							c0.9-1.5,1.8-3.1,2.7-4.6c0.4-0.8,0.9-1.5,1.3-2.3c0.5-0.8,0.9-1.5,1.4-2.2c0.9-1.5,1.8-2.9,2.7-4.4c0.9-1.4,1.8-2.7,2.7-4
							c0.8-1.3,1.7-2.5,2.4-3.5c1.6-2.1,2.8-3.9,3.8-5.1c0.9-1.2,1.5-1.9,1.5-1.9l-59.1-46.2c0,0-0.7,1-2,2.6c-1.3,1.6-3,4.1-5.2,7
							c-1.1,1.4-2.2,3.1-3.3,4.8c-1.1,1.7-2.4,3.5-3.6,5.4c-1.2,1.9-2.4,3.8-3.7,5.8c-0.6,1-1.2,2-1.9,3c-0.6,1-1.2,2.1-1.8,3.1
							c-1.2,2.1-2.4,4.1-3.6,6.1c-1.1,2.1-2.2,4.1-3.2,6c-2.1,3.9-3.9,7.7-5.4,10.8c-1.6,3.2-2.7,5.9-3.6,7.8c-0.8,1.9-1.3,3-1.3,3
							L1275.5,386.1z"/>
					</g>
					<path class="st4" d="M1262.4,326.5l6.2,4.2c0,0,0.4-0.6,1.1-1.6c0.6-0.9,1.5-2.2,2.4-3.4c1.8-2.4,3.6-4.9,3.6-4.9l-6-4.5
						c0,0-1.8,2.5-3.7,5.1c-0.9,1.2-1.8,2.6-2.4,3.5C1262.9,325.9,1262.4,326.5,1262.4,326.5z"/>
					<path class="st4" d="M1250.7,345.6l6.6,3.6c0,0,1.5-2.6,3-5.2c1.5-2.6,3.1-5.2,3.1-5.2l-6.4-4c0,0-1.7,2.6-3.2,5.3
						C1252.3,342.9,1250.7,345.6,1250.7,345.6z"/>
					<path class="st4" d="M1240.7,365.5l6.8,3.1c0,0,0.3-0.7,0.8-1.7c0.5-1,1.2-2.4,1.8-3.8c0.7-1.4,1.3-2.7,1.8-3.8
						c0.5-1,0.8-1.7,0.8-1.7l-6.7-3.4c0,0-0.3,0.7-0.9,1.7c-0.5,1.1-1.2,2.5-1.9,3.9c-0.7,1.4-1.4,2.8-1.9,3.9
						C1241,364.8,1240.7,365.5,1240.7,365.5z"/>
				</g>
			</g>
			<g>
				<g>
					<g>
						<path class="st3" d="M1304.3,337.1c0,0,0.5-0.7,1.5-1.9c1-1.2,2.4-2.8,4-4.9c3.4-4,8.1-9.1,13.2-14
							c5.1-4.9,10.6-9.6,14.9-13.1c2.1-1.8,4-3.2,5.3-4.2c1.3-1,2-1.6,2-1.6l-45.8-59.4c0,0-0.9,0.7-2.5,1.9c-1.6,1.2-3.8,3-6.5,5.2
							c-5.4,4.4-12.5,10.5-19.4,17.2c-6.9,6.6-13.5,13.8-18.2,19.3c-2.3,2.8-4.3,5.1-5.6,6.7c-1.3,1.7-2,2.6-2,2.6L1304.3,337.1z"/>
					</g>
					<path class="st4" d="M1307.2,276.6l4.9,5.7c0,0,0.6-0.5,1.4-1.2c0.9-0.7,2-1.7,3.2-2.7c1.2-1,2.4-1.9,3.2-2.6
						c0.9-0.7,1.5-1.2,1.5-1.2l-4.7-5.9c0,0-0.6,0.5-1.5,1.2c-0.9,0.7-2.1,1.7-3.3,2.7c-1.2,1-2.4,2-3.3,2.7
						C1307.8,276.1,1307.2,276.6,1307.2,276.6z"/>
					<path class="st4" d="M1290.8,291.8l5.3,5.3c0,0,2.2-2.1,4.3-4.3c2.2-2.1,4.4-4.1,4.4-4.1l-5.1-5.5c0,0-2.3,2.1-4.5,4.3
						C1293,289.6,1290.8,291.8,1290.8,291.8z"/>
					<path class="st4" d="M1275.8,308.4l5.8,4.7c0,0,1.9-2.3,3.9-4.6c2-2.3,4-4.5,4-4.5l-5.5-5c0,0-2.1,2.3-4.2,4.7
						C1277.9,306,1275.8,308.4,1275.8,308.4z"/>
				</g>
			</g>
			<g>
				<g>
					<g>
						<path class="st3" d="M1345.2,297.4c0,0,0.8-0.6,2.1-1.6c1.3-1,3.2-2.5,5.6-4.2c4.7-3.5,11.3-8.2,18.1-13.1
							c6.8-4.9,13.9-10,19.2-14.1c2.7-2,4.9-3.7,6.4-4.9c1.6-1.2,2.4-1.9,2.4-1.9l-46.5-58.8c0,0-0.8,0.6-2.1,1.6
							c-1.3,1-3.2,2.5-5.5,4.2c-4.6,3.5-11,8.2-17.7,13c-6.7,4.8-13.7,9.8-19,13.7c-2.6,1.9-4.9,3.6-6.4,4.8
							c-1.6,1.2-2.5,1.9-2.5,1.9L1345.2,297.4z"/>
					</g>
					<path class="st4" d="M1360.6,236.5l4.5,6c0,0,0.6-0.5,1.6-1.2c0.9-0.7,2.2-1.6,3.4-2.6c1.2-0.9,2.5-1.9,3.4-2.6
						c0.9-0.7,1.5-1.2,1.5-1.2l-4.6-5.9c0,0-0.6,0.5-1.5,1.2c-0.9,0.7-2.1,1.6-3.4,2.6c-1.2,0.9-2.5,1.9-3.4,2.5
						C1361.2,236.1,1360.6,236.5,1360.6,236.5z"/>
					<polygon class="st4" points="1342.6,249.5 1347,255.6 1357.1,248.4 1352.7,242.3 					"/>
					<path class="st4" d="M1324.8,262.6l4.5,6c0,0,0.6-0.5,1.5-1.2c0.9-0.7,2.2-1.6,3.4-2.5c2.5-1.8,5-3.6,5-3.6l-4.4-6.1
						c0,0-2.5,1.8-5,3.7c-1.2,0.9-2.5,1.8-3.4,2.5C1325.4,262.1,1324.8,262.6,1324.8,262.6z"/>
				</g>
			</g>
			<g>
				<g>
					<g>
						<path class="st3" d="M1399.1,257.6c0,0,0.9-0.7,2.4-2c1.6-1.3,3.8-3,6.4-5.3c5.3-4.4,12.3-10.6,19-17.1
							c3.4-3.2,6.6-6.6,9.7-9.8c3-3.2,5.8-6.2,8.1-8.9c2.3-2.6,4.3-4.8,5.5-6.4c1.3-1.6,2.1-2.5,2.1-2.5l-57.9-47.6
							c0,0-0.6,0.7-1.6,1.9c-1,1.2-2.5,2.9-4.3,5c-1.8,2.1-4,4.4-6.3,6.9c-2.4,2.4-4.9,5.1-7.5,7.6c-5.2,5.1-10.7,9.9-15,13.5
							c-2.1,1.8-4,3.3-5.2,4.3c-1.3,1-2,1.6-2,1.6L1399.1,257.6z"/>
					</g>
					<path class="st4" d="M1410.2,193.1l5.5,5.1c0,0,0.5-0.6,1.3-1.4c0.8-0.9,1.9-2,2.9-3.2c1-1.2,2.1-2.4,2.8-3.2
						c0.8-0.9,1.3-1.5,1.3-1.5l-5.7-4.9c0,0-0.5,0.6-1.3,1.4c-0.8,0.9-1.8,2-2.8,3.2c-1,1.2-2,2.3-2.8,3.1
						C1410.7,192.5,1410.2,193.1,1410.2,193.1z"/>
					<path class="st4" d="M1394.7,208.6l5.1,5.5c0,0,0.6-0.5,1.4-1.3c0.8-0.8,2-1.9,3.1-3c1.1-1.1,2.3-2.2,3.1-3
						c0.8-0.8,1.4-1.4,1.4-1.4l-5.3-5.3c0,0-0.5,0.5-1.3,1.4c-0.8,0.8-1.9,1.9-3,2.9c-1.1,1.1-2.2,2.1-3,2.9
						C1395.3,208.1,1394.7,208.6,1394.7,208.6z"/>
					<path class="st4" d="M1378.1,223l4.7,5.8c0,0,0.6-0.5,1.5-1.2c0.9-0.8,2.1-1.8,3.3-2.8c2.4-2,4.8-4.1,4.8-4.1l-4.9-5.7
						c0,0-2.3,2-4.7,4c-1.2,1-2.4,2-3.2,2.7C1378.7,222.5,1378.1,223,1378.1,223z"/>
				</g>
			</g>
			<g>
				<g>
					<g>
						<path class="st3" d="M1452.5,205.7c0,0,0.7-0.9,2.1-2.5c1.3-1.6,3.1-3.9,5.2-6.7c4.2-5.6,9.7-13.1,14.8-20.9
							c0.6-1,1.3-1.9,1.9-2.9c0.6-1,1.2-2,1.8-2.9c1.2-1.9,2.4-3.9,3.5-5.7c2.3-3.7,4.2-7.3,6-10.3c0.9-1.5,1.6-2.9,2.3-4.1
							c0.7-1.2,1.2-2.3,1.7-3.2c0.9-1.8,1.5-2.8,1.5-2.8l-66.5-34.7c0,0-0.4,0.8-1.2,2.3c-0.4,0.7-0.8,1.6-1.4,2.6
							c-0.6,1-1.2,2.1-1.9,3.3c-1.4,2.4-2.9,5.3-4.8,8.2c-0.9,1.5-1.8,3-2.8,4.5c-0.5,0.8-0.9,1.6-1.4,2.3c-0.5,0.8-1,1.5-1.5,2.3
							c-4,6.2-8.4,12.1-11.7,16.5c-1.7,2.2-3.1,4-4.1,5.2c-1,1.2-1.6,1.9-1.6,1.9L1452.5,205.7z"/>
					</g>
					<path class="st4" d="M1449.4,140.1l6.5,3.8c0,0,1.5-2.7,3.1-5.5c0.8-1.4,1.5-2.7,2.1-3.7c0.6-1,0.9-1.7,0.9-1.7l-6.6-3.6
						c0,0-0.3,0.7-0.9,1.7c-0.6,1-1.3,2.3-2.1,3.7C1450.9,137.5,1449.4,140.1,1449.4,140.1z"/>
					<path class="st4" d="M1437.6,158.7l6.2,4.2c0,0,1.7-2.6,3.5-5.2c0.9-1.3,1.8-2.6,2.4-3.6c0.6-1,1-1.7,1-1.7l-6.3-4
						c0,0-0.4,0.7-1,1.6c-0.6,1-1.5,2.2-2.3,3.5C1439.3,156.1,1437.6,158.7,1437.6,158.7z"/>
					<path class="st4" d="M1424.6,176.3l5.9,4.7c0,0,1.9-2.5,3.9-4.9c1-1.2,1.9-2.5,2.6-3.5c0.7-1,1.2-1.6,1.2-1.6l-6.1-4.4
						c0,0-0.5,0.6-1.1,1.5c-0.7,0.9-1.5,2.2-2.5,3.4C1426.5,173.9,1424.6,176.3,1424.6,176.3z"/>
				</g>
			</g>
			<g>
				<g>
					<g>
						<path class="st3" d="M1493.3,143.7c0,0,0.5-1,1.5-2.8c0.5-0.9,1-2,1.7-3.2c0.6-1.3,1.3-2.7,2-4.3c3-6.2,6.8-14.6,10.3-23.1
							c1.7-4.3,3.5-8.5,4.9-12.5c1.4-4,2.9-7.8,3.9-11c1.1-3.2,2-5.9,2.6-7.8c0.3-0.9,0.5-1.7,0.7-2.2c0.2-0.5,0.2-0.8,0.2-0.8
							l-71.6-22.2c0,0-0.1,0.2-0.2,0.7c-0.1,0.4-0.3,1-0.6,1.8c-0.5,1.6-1.3,3.8-2.1,6.5c-0.8,2.7-2,5.8-3.2,9.1
							c-1.1,3.3-2.6,6.8-4,10.3c-2.8,6.9-5.9,13.7-8.3,18.7c-0.6,1.3-1.1,2.4-1.6,3.4c-0.5,1-1,1.9-1.4,2.6
							c-0.7,1.4-1.2,2.3-1.2,2.3L1493.3,143.7z"/>
					</g>
					<path class="st4" d="M1477.2,80.3l7.1,2.5c0,0,0.3-0.7,0.7-1.8c0.4-1.1,0.9-2.6,1.4-4.1c1-3,2-5.9,2-5.9l-7.1-2.3
						c0,0-1,2.9-1.9,5.8c-0.5,1.5-1,2.9-1.4,4C1477.5,79.6,1477.2,80.3,1477.2,80.3z"/>
					<path class="st4" d="M1469.2,100.8l6.9,2.9c0,0,1.3-2.9,2.4-5.8c1.2-2.9,2.3-5.8,2.3-5.8l-7-2.7c0,0-1.1,2.8-2.3,5.7
						C1470.4,98,1469.2,100.8,1469.2,100.8z"/>
					<path class="st4" d="M1460,120.7l6.7,3.4c0,0,0.1-0.2,0.2-0.5c0.2-0.3,0.4-0.7,0.6-1.3c0.5-1.1,1.2-2.5,1.9-3.9
						c1.3-2.8,2.7-5.7,2.7-5.7l-6.8-3.1c0,0-1.3,2.8-2.6,5.5c-0.7,1.4-1.3,2.8-1.8,3.8c-0.2,0.5-0.5,0.9-0.6,1.2
						C1460.1,120.5,1460,120.7,1460,120.7z"/>
				</g>
			</g>
			<g>
				<g>
					<g>
						<path class="st3" d="M1521,75.9c0,0,1.3-4.4,3.2-10.9c0.9-3.3,1.9-7.1,3-11.2c1-4.1,2-8.5,3.1-12.9c0.9-4.4,1.9-8.8,2.7-12.9
							c0.8-4.1,1.5-8,2.1-11.3c1.1-6.6,1.8-11,1.8-11l-74.1-11.5c0,0-0.6,3.8-1.6,9.5c-0.5,2.8-1.2,6.1-1.8,9.7
							c-0.7,3.5-1.5,7.2-2.3,11c-0.9,3.7-1.8,7.4-2.6,10.9c-0.9,3.4-1.8,6.6-2.5,9.4c-1.6,5.4-2.7,9.1-2.7,9.1L1521,75.9z"/>
					</g>
					<path class="st4" d="M1494.4,16.5l7.4,1.4c0,0,0.6-3.1,1.2-6.1c0.5-3.1,1-6.2,1-6.2l-7.4-1.2c0,0-0.5,3-1,6.1
						C1495,13.5,1494.4,16.5,1494.4,16.5z"/>
					<path class="st4" d="M1489.8,38.1l7.3,1.8c0,0,0.7-3,1.5-6.1c0.7-3.1,1.3-6.1,1.3-6.1l-7.3-1.6c0,0-0.6,3-1.3,6
						C1490.5,35.1,1489.8,38.1,1489.8,38.1z"/>
					<path class="st4" d="M1484.1,59.3l7.2,2.1c0,0,0.2-0.7,0.6-1.9c0.3-1.1,0.8-2.6,1.2-4.1c0.8-3,1.6-6,1.6-6l-7.3-1.9
						c0,0-0.8,3-1.6,5.9c-0.4,1.5-0.9,2.9-1.2,4.1C1484.3,58.5,1484.1,59.3,1484.1,59.3z"/>
				</g>
			</g>
		</g>
	</g>
</g>
</svg>
