<?xml version="1.0" encoding="utf-8"?>
<!-- Generator: Adobe Illustrator 19.2.0, SVG Export Plug-In . SVG Version: 6.00 Build 0)  -->
<svg version="1.1" id="Layer_1" xmlns="http://www.w3.org/2000/svg" xmlns:xlink="http://www.w3.org/1999/xlink" x="0px" y="0px"
	 viewBox="0 0 3000 1000" style="enable-background:new 0 0 3000 1000;" xml:space="preserve">
<style type="text/css">
	.st0{opacity:0.42;}
	.st1{fill:none;}
	.st2{fill-rule:evenodd;clip-rule:evenodd;fill:#231F20;}
</style>
<g class="st0">
	<g>
		<g>
			<g>
				<g>
					<g>
						<rect x="1470" class="st1" width="60" height="52.6"/>
					</g>
					<rect x="1496.1" y="39" class="st2" width="6" height="9.8"/>
					<rect x="1496.1" y="21.5" class="st2" width="6" height="9.8"/>
					<rect x="1496.1" y="4" class="st2" width="6" height="9.8"/>
				</g>
			</g>
			<g>
				<g>
					<g>
						<rect x="1470" y="52.6" class="st1" width="60" height="52.6"/>
					</g>
					<rect x="1496.1" y="91.6" class="st2" width="6" height="9.8"/>
					<rect x="1496.1" y="74.1" class="st2" width="6" height="9.8"/>
					<rect x="1496.1" y="56.6" class="st2" width="6" height="9.8"/>
				</g>
			</g>
			<g>
				<g>
					<g>
						<rect x="1470" y="105.3" class="st1" width="60" height="52.6"/>
					</g>
					<rect x="1496.1" y="144.2" class="st2" width="6" height="9.8"/>
					<rect x="1496.1" y="126.7" class="st2" width="6" height="9.8"/>
					<rect x="1496.1" y="109.3" class="st2" width="6" height="9.8"/>
				</g>
			</g>
			<g>
				<g>
					<g>
						<rect x="1470" y="157.9" class="st1" width="60" height="52.6"/>
					</g>
					<rect x="1496.1" y="196.9" class="st2" width="6" height="9.8"/>
					<rect x="1496.1" y="179.3" class="st2" width="6" height="9.8"/>
					<rect x="1496.1" y="161.9" class="st2" width="6" height="9.8"/>
				</g>
			</g>
			<g>
				<g>
					<g>
						<rect x="1470" y="210.5" class="st1" width="60" height="52.6"/>
					</g>
					<rect x="1496.1" y="249.5" class="st2" width="6" height="9.8"/>
					<rect x="1496.1" y="232" class="st2" width="6" height="9.8"/>
					<rect x="1496.1" y="214.5" class="st2" width="6" height="9.8"/>
				</g>
			</g>
			<g>
				<g>
					<g>
						<rect x="1470" y="263.2" class="st1" width="60" height="52.6"/>
					</g>
					<rect x="1496.1" y="302.1" class="st2" width="6" height="9.8"/>
					<rect x="1496.1" y="284.6" class="st2" width="6" height="9.8"/>
					<rect x="1496.1" y="267.1" class="st2" width="6" height="9.8"/>
				</g>
			</g>
			<g>
				<g>
					<g>
						<rect x="1470" y="315.8" class="st1" width="60" height="52.6"/>
					</g>
					<rect x="1496.1" y="354.8" class="st2" width="6" height="9.8"/>
					<rect x="1496.1" y="337.2" class="st2" width="6" height="9.8"/>
					<rect x="1496.1" y="319.8" class="st2" width="6" height="9.8"/>
				</g>
			</g>
			<g>
				<g>
					<g>
						<rect x="1470" y="368.4" class="st1" width="60" height="52.6"/>
					</g>
					<rect x="1496.1" y="407.4" class="st2" width="6" height="9.8"/>
					<rect x="1496.1" y="389.9" class="st2" width="6" height="9.8"/>
					<rect x="1496.1" y="372.4" class="st2" width="6" height="9.8"/>
				</g>
			</g>
			<g>
				<g>
					<g>
						<rect x="1470" y="421.1" class="st1" width="60" height="52.6"/>
					</g>
					<rect x="1496.1" y="460" class="st2" width="6" height="9.8"/>
					<rect x="1496.1" y="442.5" class="st2" width="6" height="9.8"/>
					<rect x="1496.1" y="425" class="st2" width="6" height="9.8"/>
				</g>
			</g>
			<g>
				<g>
					<g>
						<rect x="1470" y="473.7" class="st1" width="60" height="52.6"/>
					</g>
					<rect x="1496.1" y="512.7" class="st2" width="6" height="9.8"/>
					<rect x="1496.1" y="495.1" class="st2" width="6" height="9.8"/>
					<rect x="1496.1" y="477.7" class="st2" width="6" height="9.8"/>
				</g>
			</g>
			<g>
				<g>
					<g>
						<rect x="1470" y="526.3" class="st1" width="60" height="52.6"/>
					</g>
					<rect x="1496.1" y="565.3" class="st2" width="6" height="9.8"/>
					<rect x="1496.1" y="547.8" class="st2" width="6" height="9.8"/>
					<rect x="1496.1" y="530.3" class="st2" width="6" height="9.8"/>
				</g>
			</g>
			<g>
				<g>
					<g>
						<rect x="1470" y="578.9" class="st1" width="60" height="52.6"/>
					</g>
					<rect x="1496.1" y="617.9" class="st2" width="6" height="9.8"/>
					<rect x="1496.1" y="600.4" class="st2" width="6" height="9.8"/>
					<rect x="1496.1" y="582.9" class="st2" width="6" height="9.8"/>
				</g>
			</g>
			<g>
				<g>
					<g>
						<rect x="1470" y="631.6" class="st1" width="60" height="52.6"/>
					</g>
					<rect x="1496.1" y="670.6" class="st2" width="6" height="9.8"/>
					<rect x="1496.1" y="653" class="st2" width="6" height="9.8"/>
					<rect x="1496.1" y="635.6" class="st2" width="6" height="9.8"/>
				</g>
			</g>
			<g>
				<g>
					<g>
						<rect x="1470" y="684.2" class="st1" width="60" height="52.6"/>
					</g>
					<rect x="1496.1" y="723.2" class="st2" width="6" height="9.8"/>
					<rect x="1496.1" y="705.7" class="st2" width="6" height="9.8"/>
					<rect x="1496.1" y="688.2" class="st2" width="6" height="9.8"/>
				</g>
			</g>
			<g>
				<g>
					<g>
						<rect x="1470" y="736.8" class="st1" width="60" height="52.6"/>
					</g>
					<rect x="1496.1" y="775.8" class="st2" width="6" height="9.8"/>
					<rect x="1496.1" y="758.3" class="st2" width="6" height="9.8"/>
					<rect x="1496.1" y="740.8" class="st2" width="6" height="9.8"/>
				</g>
			</g>
			<g>
				<g>
					<g>
						<rect x="1470" y="789.5" class="st1" width="60" height="52.6"/>
					</g>
					<rect x="1496.1" y="828.4" class="st2" width="6" height="9.8"/>
					<rect x="1496.1" y="810.9" class="st2" width="6" height="9.8"/>
					<rect x="1496.1" y="793.5" class="st2" width="6" height="9.8"/>
				</g>
			</g>
			<g>
				<g>
					<g>
						<rect x="1470" y="842.1" class="st1" width="60" height="52.6"/>
					</g>
					<rect x="1496.1" y="881.1" class="st2" width="6" height="9.8"/>
					<rect x="1496.1" y="863.6" class="st2" width="6" height="9.8"/>
					<rect x="1496.1" y="846.1" class="st2" width="6" height="9.8"/>
				</g>
			</g>
			<g>
				<g>
					<g>
						<rect x="1470" y="894.7" class="st1" width="60" height="52.6"/>
					</g>
					<rect x="1496.1" y="933.7" class="st2" width="6" height="9.8"/>
					<rect x="1496.1" y="916.2" class="st2" width="6" height="9.8"/>
					<rect x="1496.1" y="898.7" class="st2" width="6" height="9.8"/>
				</g>
			</g>
			<g>
				<g>
					<g>
						<rect x="1470" y="947.4" class="st1" width="60" height="52.6"/>
					</g>
					<rect x="1496.1" y="986.3" class="st2" width="6" height="9.8"/>
					<rect x="1496.1" y="968.8" class="st2" width="6" height="9.8"/>
					<rect x="1496.1" y="951.4" class="st2" width="6" height="9.8"/>
				</g>
			</g>
		</g>
	</g>
</g>
</svg>
