<?xml version="1.0" encoding="utf-8"?>
<!-- Generator: Adobe Illustrator 19.2.0, SVG Export Plug-In . SVG Version: 6.00 Build 0)  -->
<svg version="1.1" id="Layer_1" xmlns="http://www.w3.org/2000/svg" xmlns:xlink="http://www.w3.org/1999/xlink" x="0px" y="0px"
	 viewBox="0 0 3000 1000" style="enable-background:new 0 0 3000 1000;" xml:space="preserve">
<style type="text/css">
	.st0{opacity:0.42;}
	.st1{fill:none;}
	.st2{fill-rule:evenodd;clip-rule:evenodd;fill:#231F20;}
</style>
<g class="st0">
	<g>
		<g>
			<g>
				<g>
					<g>
						<rect x="1462.5" class="st1" width="75" height="66.7"/>
					</g>
					<rect x="1495.2" y="49.4" class="st2" width="7.5" height="12.4"/>
					<rect x="1495.2" y="27.2" class="st2" width="7.5" height="12.4"/>
					<rect x="1495.2" y="5.1" class="st2" width="7.5" height="12.4"/>
				</g>
			</g>
			<g>
				<g>
					<g>
						<rect x="1462.5" y="66.7" class="st1" width="75" height="66.7"/>
					</g>
					<rect x="1495.2" y="116" class="st2" width="7.5" height="12.4"/>
					<rect x="1495.2" y="93.8" class="st2" width="7.5" height="12.4"/>
					<rect x="1495.2" y="71.7" class="st2" width="7.5" height="12.4"/>
				</g>
			</g>
			<g>
				<g>
					<g>
						<rect x="1462.5" y="133.3" class="st1" width="75" height="66.7"/>
					</g>
					<rect x="1495.2" y="182.7" class="st2" width="7.5" height="12.4"/>
					<rect x="1495.2" y="160.5" class="st2" width="7.5" height="12.4"/>
					<rect x="1495.2" y="138.4" class="st2" width="7.5" height="12.4"/>
				</g>
			</g>
			<g>
				<g>
					<g>
						<rect x="1462.5" y="200" class="st1" width="75" height="66.7"/>
					</g>
					<rect x="1495.2" y="249.4" class="st2" width="7.5" height="12.4"/>
					<rect x="1495.2" y="227.2" class="st2" width="7.5" height="12.4"/>
					<rect x="1495.2" y="205.1" class="st2" width="7.5" height="12.4"/>
				</g>
			</g>
			<g>
				<g>
					<g>
						<rect x="1462.5" y="266.7" class="st1" width="75" height="66.7"/>
					</g>
					<rect x="1495.2" y="316" class="st2" width="7.5" height="12.4"/>
					<rect x="1495.2" y="293.8" class="st2" width="7.5" height="12.4"/>
					<rect x="1495.2" y="271.7" class="st2" width="7.5" height="12.4"/>
				</g>
			</g>
			<g>
				<g>
					<g>
						<rect x="1462.5" y="333.3" class="st1" width="75" height="66.7"/>
					</g>
					<rect x="1495.2" y="382.7" class="st2" width="7.5" height="12.4"/>
					<rect x="1495.2" y="360.5" class="st2" width="7.5" height="12.4"/>
					<rect x="1495.2" y="338.4" class="st2" width="7.5" height="12.4"/>
				</g>
			</g>
			<g>
				<g>
					<g>
						<rect x="1462.5" y="400" class="st1" width="75" height="66.7"/>
					</g>
					<rect x="1495.2" y="449.4" class="st2" width="7.5" height="12.4"/>
					<rect x="1495.2" y="427.2" class="st2" width="7.5" height="12.4"/>
					<rect x="1495.2" y="405.1" class="st2" width="7.5" height="12.4"/>
				</g>
			</g>
			<g>
				<g>
					<g>
						<rect x="1462.5" y="466.7" class="st1" width="75" height="66.7"/>
					</g>
					<rect x="1495.2" y="516" class="st2" width="7.5" height="12.4"/>
					<rect x="1495.2" y="493.8" class="st2" width="7.5" height="12.4"/>
					<rect x="1495.2" y="471.7" class="st2" width="7.5" height="12.4"/>
				</g>
			</g>
			<g>
				<g>
					<g>
						<rect x="1462.5" y="533.3" class="st1" width="75" height="66.7"/>
					</g>
					<rect x="1495.2" y="582.7" class="st2" width="7.5" height="12.4"/>
					<rect x="1495.2" y="560.5" class="st2" width="7.5" height="12.4"/>
					<rect x="1495.2" y="538.4" class="st2" width="7.5" height="12.4"/>
				</g>
			</g>
			<g>
				<g>
					<g>
						<rect x="1462.5" y="600" class="st1" width="75" height="66.7"/>
					</g>
					<rect x="1495.2" y="649.4" class="st2" width="7.5" height="12.4"/>
					<rect x="1495.2" y="627.2" class="st2" width="7.5" height="12.4"/>
					<rect x="1495.2" y="605.1" class="st2" width="7.5" height="12.4"/>
				</g>
			</g>
			<g>
				<g>
					<g>
						<rect x="1462.5" y="666.7" class="st1" width="75" height="66.7"/>
					</g>
					<rect x="1495.2" y="716" class="st2" width="7.5" height="12.4"/>
					<rect x="1495.2" y="693.8" class="st2" width="7.5" height="12.4"/>
					<rect x="1495.2" y="671.7" class="st2" width="7.5" height="12.4"/>
				</g>
			</g>
			<g>
				<g>
					<g>
						<rect x="1462.5" y="733.3" class="st1" width="75" height="66.7"/>
					</g>
					<rect x="1495.2" y="782.7" class="st2" width="7.5" height="12.4"/>
					<rect x="1495.2" y="760.5" class="st2" width="7.5" height="12.4"/>
					<rect x="1495.2" y="738.4" class="st2" width="7.5" height="12.4"/>
				</g>
			</g>
			<g>
				<g>
					<g>
						<rect x="1462.5" y="800" class="st1" width="75" height="66.7"/>
					</g>
					<rect x="1495.2" y="849.4" class="st2" width="7.5" height="12.4"/>
					<rect x="1495.2" y="827.2" class="st2" width="7.5" height="12.4"/>
					<rect x="1495.2" y="805.1" class="st2" width="7.5" height="12.4"/>
				</g>
			</g>
			<g>
				<g>
					<g>
						<rect x="1462.5" y="866.7" class="st1" width="75" height="66.7"/>
					</g>
					<rect x="1495.2" y="916" class="st2" width="7.5" height="12.4"/>
					<rect x="1495.2" y="893.8" class="st2" width="7.5" height="12.4"/>
					<rect x="1495.2" y="871.7" class="st2" width="7.5" height="12.4"/>
				</g>
			</g>
			<g>
				<g>
					<g>
						<rect x="1462.5" y="933.3" class="st1" width="75" height="66.7"/>
					</g>
					<rect x="1495.2" y="982.7" class="st2" width="7.5" height="12.4"/>
					<rect x="1495.2" y="960.5" class="st2" width="7.5" height="12.4"/>
					<rect x="1495.2" y="938.4" class="st2" width="7.5" height="12.4"/>
				</g>
			</g>
		</g>
	</g>
</g>
</svg>
