<?xml version="1.0" encoding="utf-8"?>
<!-- Generator: Adobe Illustrator 19.2.0, SVG Export Plug-In . SVG Version: 6.00 Build 0)  -->
<svg version="1.1" id="Layer_1" xmlns="http://www.w3.org/2000/svg" xmlns:xlink="http://www.w3.org/1999/xlink" x="0px" y="0px"
	 viewBox="0 0 3000 1000" style="enable-background:new 0 0 3000 1000;" xml:space="preserve">
<style type="text/css">
	.st0{opacity:0.42;}
	.st1{fill:none;}
	.st2{fill-rule:evenodd;clip-rule:evenodd;fill:#231F20;}
</style>
<g class="st0">
	<g>
		<g>
			<g>
				<g>
					<g>
						<rect x="1440" class="st1" width="120" height="111.1"/>
					</g>
					<rect x="1492.2" y="82.3" class="st2" width="12" height="20.6"/>
					<rect x="1492.2" y="45.3" class="st2" width="12" height="20.6"/>
					<rect x="1492.2" y="8.4" class="st2" width="12" height="20.6"/>
				</g>
			</g>
			<g>
				<g>
					<g>
						<rect x="1440" y="111.1" class="st1" width="120" height="111.1"/>
					</g>
					<rect x="1492.2" y="193.4" class="st2" width="12" height="20.6"/>
					<rect x="1492.2" y="156.4" class="st2" width="12" height="20.6"/>
					<rect x="1492.2" y="119.5" class="st2" width="12" height="20.6"/>
				</g>
			</g>
			<g>
				<g>
					<g>
						<rect x="1440" y="222.2" class="st1" width="120" height="111.1"/>
					</g>
					<rect x="1492.2" y="304.5" class="st2" width="12" height="20.6"/>
					<rect x="1492.2" y="267.5" class="st2" width="12" height="20.6"/>
					<rect x="1492.2" y="230.6" class="st2" width="12" height="20.6"/>
				</g>
			</g>
			<g>
				<g>
					<g>
						<rect x="1440" y="333.3" class="st1" width="120" height="111.1"/>
					</g>
					<rect x="1492.2" y="415.6" class="st2" width="12" height="20.6"/>
					<rect x="1492.2" y="378.6" class="st2" width="12" height="20.6"/>
					<rect x="1492.2" y="341.8" class="st2" width="12" height="20.6"/>
				</g>
			</g>
			<g>
				<g>
					<g>
						<rect x="1440" y="444.4" class="st1" width="120" height="111.1"/>
					</g>
					<rect x="1492.2" y="526.7" class="st2" width="12" height="20.6"/>
					<rect x="1492.2" y="489.7" class="st2" width="12" height="20.6"/>
					<rect x="1492.2" y="452.9" class="st2" width="12" height="20.6"/>
				</g>
			</g>
			<g>
				<g>
					<g>
						<rect x="1440" y="555.6" class="st1" width="120" height="111.1"/>
					</g>
					<rect x="1492.2" y="637.8" class="st2" width="12" height="20.6"/>
					<rect x="1492.2" y="600.8" class="st2" width="12" height="20.6"/>
					<rect x="1492.2" y="564" class="st2" width="12" height="20.6"/>
				</g>
			</g>
			<g>
				<g>
					<g>
						<rect x="1440" y="666.7" class="st1" width="120" height="111.1"/>
					</g>
					<rect x="1492.2" y="748.9" class="st2" width="12" height="20.6"/>
					<rect x="1492.2" y="712" class="st2" width="12" height="20.6"/>
					<rect x="1492.2" y="675.1" class="st2" width="12" height="20.6"/>
				</g>
			</g>
			<g>
				<g>
					<g>
						<rect x="1440" y="777.8" class="st1" width="120" height="111.1"/>
					</g>
					<rect x="1492.2" y="860.1" class="st2" width="12" height="20.6"/>
					<rect x="1492.2" y="823.1" class="st2" width="12" height="20.6"/>
					<rect x="1492.2" y="786.2" class="st2" width="12" height="20.6"/>
				</g>
			</g>
			<g>
				<g>
					<g>
						<rect x="1440" y="888.9" class="st1" width="120" height="111.1"/>
					</g>
					<rect x="1492.2" y="971.2" class="st2" width="12" height="20.6"/>
					<rect x="1492.2" y="934.2" class="st2" width="12" height="20.6"/>
					<rect x="1492.2" y="897.3" class="st2" width="12" height="20.6"/>
				</g>
			</g>
		</g>
	</g>
</g>
</svg>
