<?xml version="1.0" encoding="utf-8"?>
<!-- Generator: Adobe Illustrator 19.2.0, SVG Export Plug-In . SVG Version: 6.00 Build 0)  -->
<svg version="1.1" id="Layer_1" xmlns="http://www.w3.org/2000/svg" xmlns:xlink="http://www.w3.org/1999/xlink" x="0px" y="0px"
	 viewBox="0 0 3000 1000" style="enable-background:new 0 0 3000 1000;" xml:space="preserve">
<style type="text/css">
	.st0{opacity:0.42;}
	.st1{fill:none;}
	.st2{fill-rule:evenodd;clip-rule:evenodd;fill:#231F20;}
</style>
<g class="st0">
	<g>
		<g>
			<g>
				<g>
					<g>
						<rect x="1447.5" class="st1" width="105" height="90.9"/>
					</g>
					<rect x="1493.2" y="67.3" class="st2" width="10.5" height="16.9"/>
					<rect x="1493.2" y="37.1" class="st2" width="10.5" height="16.9"/>
					<rect x="1493.2" y="6.9" class="st2" width="10.5" height="16.9"/>
				</g>
			</g>
			<g>
				<g>
					<g>
						<rect x="1447.5" y="90.9" class="st1" width="105" height="90.9"/>
					</g>
					<rect x="1493.2" y="158.2" class="st2" width="10.5" height="16.9"/>
					<rect x="1493.2" y="128" class="st2" width="10.5" height="16.9"/>
					<rect x="1493.2" y="97.8" class="st2" width="10.5" height="16.9"/>
				</g>
			</g>
			<g>
				<g>
					<g>
						<rect x="1447.5" y="181.8" class="st1" width="105" height="90.9"/>
					</g>
					<rect x="1493.2" y="249.1" class="st2" width="10.5" height="16.9"/>
					<rect x="1493.2" y="218.9" class="st2" width="10.5" height="16.9"/>
					<rect x="1493.2" y="188.7" class="st2" width="10.5" height="16.9"/>
				</g>
			</g>
			<g>
				<g>
					<g>
						<rect x="1447.5" y="272.7" class="st1" width="105" height="90.9"/>
					</g>
					<rect x="1493.2" y="340" class="st2" width="10.5" height="16.9"/>
					<rect x="1493.2" y="309.8" class="st2" width="10.5" height="16.9"/>
					<rect x="1493.2" y="279.6" class="st2" width="10.5" height="16.9"/>
				</g>
			</g>
			<g>
				<g>
					<g>
						<rect x="1447.5" y="363.6" class="st1" width="105" height="90.9"/>
					</g>
					<rect x="1493.2" y="431" class="st2" width="10.5" height="16.9"/>
					<rect x="1493.2" y="400.7" class="st2" width="10.5" height="16.9"/>
					<rect x="1493.2" y="370.5" class="st2" width="10.5" height="16.9"/>
				</g>
			</g>
			<g>
				<g>
					<g>
						<rect x="1447.5" y="454.5" class="st1" width="105" height="90.9"/>
					</g>
					<rect x="1493.2" y="521.9" class="st2" width="10.5" height="16.9"/>
					<rect x="1493.2" y="491.6" class="st2" width="10.5" height="16.9"/>
					<rect x="1493.2" y="461.4" class="st2" width="10.5" height="16.9"/>
				</g>
			</g>
			<g>
				<g>
					<g>
						<rect x="1447.5" y="545.5" class="st1" width="105" height="90.9"/>
					</g>
					<rect x="1493.2" y="612.8" class="st2" width="10.5" height="16.9"/>
					<rect x="1493.2" y="582.5" class="st2" width="10.5" height="16.9"/>
					<rect x="1493.2" y="552.3" class="st2" width="10.5" height="16.9"/>
				</g>
			</g>
			<g>
				<g>
					<g>
						<rect x="1447.5" y="636.4" class="st1" width="105" height="90.9"/>
					</g>
					<rect x="1493.2" y="703.7" class="st2" width="10.5" height="16.9"/>
					<rect x="1493.2" y="673.4" class="st2" width="10.5" height="16.9"/>
					<rect x="1493.2" y="643.3" class="st2" width="10.5" height="16.9"/>
				</g>
			</g>
			<g>
				<g>
					<g>
						<rect x="1447.5" y="727.3" class="st1" width="105" height="90.9"/>
					</g>
					<rect x="1493.2" y="794.6" class="st2" width="10.5" height="16.9"/>
					<rect x="1493.2" y="764.3" class="st2" width="10.5" height="16.9"/>
					<rect x="1493.2" y="734.2" class="st2" width="10.5" height="16.9"/>
				</g>
			</g>
			<g>
				<g>
					<g>
						<rect x="1447.5" y="818.2" class="st1" width="105" height="90.9"/>
					</g>
					<rect x="1493.2" y="885.5" class="st2" width="10.5" height="16.9"/>
					<rect x="1493.2" y="855.2" class="st2" width="10.5" height="16.9"/>
					<rect x="1493.2" y="825.1" class="st2" width="10.5" height="16.9"/>
				</g>
			</g>
			<g>
				<g>
					<g>
						<rect x="1447.5" y="909.1" class="st1" width="105" height="90.9"/>
					</g>
					<rect x="1493.2" y="976.4" class="st2" width="10.5" height="16.9"/>
					<rect x="1493.2" y="946.1" class="st2" width="10.5" height="16.9"/>
					<rect x="1493.2" y="916" class="st2" width="10.5" height="16.9"/>
				</g>
			</g>
		</g>
	</g>
</g>
</svg>
