<?xml version="1.0" encoding="utf-8"?>
<!-- Generator: Adobe Illustrator 19.2.0, SVG Export Plug-In . SVG Version: 6.00 Build 0)  -->
<svg version="1.1" id="Layer_1" xmlns="http://www.w3.org/2000/svg" xmlns:xlink="http://www.w3.org/1999/xlink" x="0px" y="0px"
	 viewBox="0 0 3000 2000" style="enable-background:new 0 0 3000 2000;" xml:space="preserve">
<style type="text/css">
	.st0{fill:none;}
	.st1{fill:none;stroke:#231F20;stroke-width:2;stroke-linecap:round;stroke-dasharray:0,4.5;}
	.st2{fill:#231F20;stroke:#231F20;stroke-width:0.6;}
	.st3{fill:#231F20;}
	.st4{opacity:0.24;fill:url(#Willow_Branch);}
</style>
<pattern  width="116" height="175.5" patternUnits="userSpaceOnUse" id="Willow_Branch" viewBox="0 -356.2 116 175.5" style="overflow:visible;">
	<g>
		<rect y="-356.2" class="st0" width="116" height="175.5"/>
		<g>
			<line class="st1" x1="31" y1="-184" x2="31" y2="-1"/>
			<line class="st1" x1="2" y1="-184" x2="2" y2="-1"/>
			<line class="st1" x1="60" y1="-184" x2="60" y2="-1"/>
			<line class="st1" x1="89" y1="-184" x2="89" y2="-1"/>
			<line class="st2" x1="74.5" y1="-181.6" x2="74.5" y2="-146.4"/>
			<line class="st2" x1="45.5" y1="-181.6" x2="45.5" y2="-98.4"/>
			<line class="st2" x1="16.5" y1="-181.6" x2="16.5" y2="-154.4"/>
		</g>
		<g>
			<line class="st1" x1="31" y1="-359.5" x2="31" y2="-176.5"/>
			<line class="st1" x1="2" y1="-359.5" x2="2" y2="-176.5"/>
			<line class="st1" x1="60" y1="-359.5" x2="60" y2="-176.5"/>
			<line class="st1" x1="89" y1="-359.5" x2="89" y2="-176.5"/>
			<path class="st3" d="M74.5-325.5c0.1,2.5,0.9,3.9,1.2,4.3c1.4,2.3-0.1,2.9-0.6,2c0.4,1.2,0.5,2.7-0.5,3c-1.1-0.2-1-1.8-0.5-3
				c-0.6,0.9-2.1,0.4-0.6-2C73.6-321.6,74.4-323,74.5-325.5z"/>
			<path class="st3" d="M74.5-229.5c0.1,2.5,0.9,3.9,1.2,4.3c1.4,2.3-0.1,2.9-0.6,2c0.4,1.2,0.5,2.7-0.5,3c-1.1-0.2-1-1.8-0.5-3
				c-0.6,0.9-2.1,0.4-0.6-2C73.6-225.6,74.4-227,74.5-229.5z"/>
			<path class="st3" d="M45.5-277.5c0.1,2.5,0.9,3.9,1.2,4.3c1.4,2.3,0,2.9-0.6,2c0.4,1.2,0.5,2.7-0.5,3c-1.1-0.2-1-1.8-0.5-3
				c-0.6,0.9-2.1,0.4-0.6-2C44.6-273.6,45.4-275,45.5-277.5z"/>
			<path class="st3" d="M16.5-333.5c0.1,2.5,0.9,3.9,1.2,4.3c1.4,2.3,0,2.9-0.6,2c0.4,1.2,0.5,2.7-0.5,3c-1.1-0.2-1-1.8-0.5-3
				c-0.6,0.9-2.1,0.4-0.6-2C15.6-329.6,16.4-331,16.5-333.5z"/>
			<path class="st3" d="M16.5-229.5c0.1,2.5,0.9,3.9,1.2,4.3c1.4,2.3,0,2.9-0.6,2c0.4,1.2,0.5,2.7-0.5,3c-1.1-0.2-1-1.8-0.5-3
				c-0.6,0.9-2.1,0.4-0.6-2C15.6-225.6,16.4-227,16.5-229.5z"/>
			<path class="st3" d="M103.5-190c0.1,2.5,0.9,3.9,1.2,4.3c1.4,2.3-0.1,2.9-0.6,2c0.4,1.2,0.5,2.7-0.5,3c-1.1-0.2-1-1.8-0.5-3
				c-0.6,0.9-2.1,0.4-0.6-2C102.6-186.1,103.4-187.5,103.5-190z"/>
			<line class="st2" x1="74.5" y1="-357.1" x2="74.5" y2="-321.9"/>
			<line class="st2" x1="74.5" y1="-308.1" x2="74.5" y2="-225.9"/>
			<line class="st2" x1="45.5" y1="-357.1" x2="45.5" y2="-273.9"/>
			<line class="st2" x1="45.5" y1="-179.6" x2="45.5" y2="-244.6"/>
			<line class="st2" x1="16.5" y1="-300.4" x2="16.5" y2="-225.9"/>
			<line class="st2" x1="16.5" y1="-357.1" x2="16.5" y2="-329.9"/>
			<line class="st2" x1="103.5" y1="-186.4" x2="103.5" y2="-332.6"/>
			<line class="st2" x1="74.5" y1="-188.9" x2="74.5" y2="-179.2"/>
			<line class="st2" x1="16.5" y1="-204.6" x2="16.5" y2="-179.2"/>
			<path class="st3" d="M69.2-332.9c-0.2-2.8,1.2-5.6,3.5-7.2C72.8-337.3,71.5-334.5,69.2-332.9z"/>
			<path class="st3" d="M79.8-332.9c0.2-2.8-1.2-5.6-3.5-7.2C76.2-337.3,77.5-334.5,79.8-332.9z"/>
			<path class="st3" d="M69.2-340.9c-0.2-2.8,1.2-5.6,3.5-7.2C72.8-345.3,71.5-342.5,69.2-340.9z"/>
			<path class="st3" d="M79.8-340.9c0.2-2.8-1.2-5.6-3.5-7.2C76.2-345.3,77.5-342.5,79.8-340.9z"/>
			<path class="st3" d="M69.2-348.9c-0.2-2.8,1.2-5.6,3.5-7.2C72.8-353.3,71.5-350.5,69.2-348.9z"/>
			<path class="st3" d="M79.8-348.9c0.2-2.8-1.2-5.6-3.5-7.2C76.2-353.3,77.5-350.5,79.8-348.9z"/>
			<path class="st3" d="M69.2-236.9c-0.2-2.8,1.2-5.6,3.5-7.2C72.8-241.3,71.5-238.5,69.2-236.9z"/>
			<path class="st3" d="M79.8-236.9c0.2-2.8-1.2-5.6-3.5-7.2C76.2-241.3,77.5-238.5,79.8-236.9z"/>
			<path class="st3" d="M69.2-244.9c-0.2-2.8,1.2-5.6,3.5-7.2C72.8-249.3,71.5-246.5,69.2-244.9z"/>
			<path class="st3" d="M79.8-244.9c0.2-2.8-1.2-5.6-3.5-7.2C76.2-249.3,77.5-246.5,79.8-244.9z"/>
			<path class="st3" d="M69.2-252.9c-0.2-2.8,1.2-5.6,3.5-7.2C72.8-257.3,71.5-254.5,69.2-252.9z"/>
			<path class="st3" d="M79.8-252.9c0.2-2.8-1.2-5.6-3.5-7.2C76.2-257.3,77.5-254.5,79.8-252.9z"/>
			<path class="st3" d="M69.2-260.9c-0.2-2.8,1.2-5.6,3.5-7.2C72.8-265.3,71.5-262.5,69.2-260.9z"/>
			<path class="st3" d="M79.8-260.9c0.2-2.8-1.2-5.6-3.5-7.2C76.2-265.3,77.5-262.5,79.8-260.9z"/>
			<path class="st3" d="M69.2-268.9c-0.2-2.8,1.2-5.6,3.5-7.2C72.8-273.3,71.5-270.5,69.2-268.9z"/>
			<path class="st3" d="M79.8-268.9c0.2-2.8-1.2-5.6-3.5-7.2C76.2-273.3,77.5-270.5,79.8-268.9z"/>
			<path class="st3" d="M40.2-276.9c-0.2-2.8,1.2-5.6,3.5-7.2C43.8-281.3,42.5-278.5,40.2-276.9z"/>
			<path class="st3" d="M50.8-276.9c0.2-2.8-1.2-5.6-3.5-7.2C47.2-281.3,48.5-278.5,50.8-276.9z"/>
			<path class="st3" d="M40.2-284.9c-0.2-2.8,1.2-5.6,3.5-7.2C43.8-289.3,42.5-286.5,40.2-284.9z"/>
			<path class="st3" d="M50.8-284.9c0.2-2.8-1.2-5.6-3.5-7.2C47.2-289.3,48.5-286.5,50.8-284.9z"/>
			<path class="st3" d="M40.2-292.9c-0.2-2.8,1.2-5.6,3.5-7.2C43.8-297.3,42.5-294.5,40.2-292.9z"/>
			<path class="st3" d="M50.8-292.9c0.2-2.8-1.2-5.6-3.5-7.2C47.2-297.3,48.5-294.5,50.8-292.9z"/>
			<path class="st3" d="M40.2-300.9c-0.2-2.8,1.2-5.6,3.5-7.2C43.8-305.3,42.5-302.5,40.2-300.9z"/>
			<path class="st3" d="M50.8-300.9c0.2-2.8-1.2-5.6-3.5-7.2C47.2-305.3,48.5-302.5,50.8-300.9z"/>
			<path class="st3" d="M40.2-308.9c-0.2-2.8,1.2-5.6,3.5-7.2C43.8-313.3,42.5-310.5,40.2-308.9z"/>
			<path class="st3" d="M50.8-308.9c0.2-2.8-1.2-5.6-3.5-7.2C47.2-313.3,48.5-310.5,50.8-308.9z"/>
			<path class="st3" d="M40.2-316.9c-0.2-2.8,1.2-5.6,3.5-7.2C43.8-321.3,42.5-318.5,40.2-316.9z"/>
			<path class="st3" d="M50.8-316.9c0.2-2.8-1.2-5.6-3.5-7.2C47.2-321.3,48.5-318.5,50.8-316.9z"/>
			<path class="st3" d="M40.2-324.9c-0.2-2.8,1.2-5.6,3.5-7.2C43.8-329.3,42.5-326.5,40.2-324.9z"/>
			<path class="st3" d="M50.8-324.9c0.2-2.8-1.2-5.6-3.5-7.2C47.2-329.3,48.5-326.5,50.8-324.9z"/>
			<path class="st3" d="M40.2-332.9c-0.2-2.8,1.2-5.6,3.5-7.2C43.8-337.3,42.5-334.5,40.2-332.9z"/>
			<path class="st3" d="M50.8-332.9c0.2-2.8-1.2-5.6-3.5-7.2C47.2-337.3,48.5-334.5,50.8-332.9z"/>
			<path class="st3" d="M40.2-189.4c-0.2-2.8,1.2-5.6,3.5-7.2C43.8-193.8,42.5-191,40.2-189.4z"/>
			<path class="st3" d="M50.8-189.4c0.2-2.8-1.2-5.6-3.5-7.2C47.2-193.8,48.5-191,50.8-189.4z"/>
			<path class="st3" d="M40.2-197.4c-0.2-2.8,1.2-5.6,3.5-7.2C43.8-201.8,42.5-199,40.2-197.4z"/>
			<path class="st3" d="M50.8-197.4c0.2-2.8-1.2-5.6-3.5-7.2C47.2-201.8,48.5-199,50.8-197.4z"/>
			<path class="st3" d="M40.2-205.4c-0.2-2.8,1.2-5.6,3.5-7.2C43.8-209.8,42.5-207,40.2-205.4z"/>
			<path class="st3" d="M50.8-205.4c0.2-2.8-1.2-5.6-3.5-7.2C47.2-209.8,48.5-207,50.8-205.4z"/>
			<path class="st3" d="M40.2-213.4c-0.2-2.8,1.2-5.6,3.5-7.2C43.8-217.8,42.5-215,40.2-213.4z"/>
			<path class="st3" d="M50.8-213.4c0.2-2.8-1.2-5.6-3.5-7.2C47.2-217.8,48.5-215,50.8-213.4z"/>
			<path class="st3" d="M40.2-221.4c-0.2-2.8,1.2-5.6,3.5-7.2C43.8-225.8,42.5-223,40.2-221.4z"/>
			<path class="st3" d="M50-222.8c0.2-2.8-0.4-4.3-2.7-5.9C47.2-225.8,47.7-224.4,50-222.8z"/>
			<path class="st3" d="M40.2-229.4c-0.2-2.8,1.2-5.6,3.5-7.2C43.8-233.8,42.5-231,40.2-229.4z"/>
			<path class="st3" d="M50.8-229.4c0.2-2.8-1.2-5.6-3.5-7.2C47.2-233.8,48.5-231,50.8-229.4z"/>
			<path class="st3" d="M69.2-324.9c-0.2-2.8,1.2-5.6,3.5-7.2C72.8-329.3,71.5-326.5,69.2-324.9z"/>
			<path class="st3" d="M79.8-324.9c0.2-2.8-1.2-5.6-3.5-7.2C76.2-329.3,77.5-326.5,79.8-324.9z"/>
			<path class="st3" d="M40.2-340.9c-0.2-2.8,1.2-5.6,3.5-7.2C43.8-345.3,42.5-342.5,40.2-340.9z"/>
			<path class="st3" d="M50.8-340.9c0.2-2.8-1.2-5.6-3.5-7.2C47.2-345.3,48.5-342.5,50.8-340.9z"/>
			<path class="st3" d="M40.2-348.9c-0.2-2.8,1.2-5.6,3.5-7.2C43.8-353.3,42.5-350.5,40.2-348.9z"/>
			<path class="st3" d="M50.8-348.9c0.2-2.8-1.2-5.6-3.5-7.2C47.2-353.3,48.5-350.5,50.8-348.9z"/>
			<path class="st3" d="M11.2-260.9c-0.2-2.8,1.2-5.6,3.5-7.2C14.8-265.3,13.5-262.5,11.2-260.9z"/>
			<path class="st3" d="M21.8-260.9c0.2-2.8-1.2-5.6-3.5-7.2C18.2-265.3,19.5-262.5,21.8-260.9z"/>
			<path class="st3" d="M11.2-332.9c-0.2-2.8,1.2-5.6,3.5-7.2C14.8-337.3,13.5-334.5,11.2-332.9z"/>
			<path class="st3" d="M21.8-332.9c0.2-2.8-1.2-5.6-3.5-7.2C18.2-337.3,19.5-334.5,21.8-332.9z"/>
			<path class="st3" d="M11.2-340.9c-0.2-2.8,1.2-5.6,3.5-7.2C14.8-345.3,13.5-342.5,11.2-340.9z"/>
			<path class="st3" d="M21.8-340.9c0.2-2.8-1.2-5.6-3.5-7.2C18.2-345.3,19.5-342.5,21.8-340.9z"/>
			<path class="st3" d="M11.2-348.9c-0.2-2.8,1.2-5.6,3.5-7.2C14.8-353.3,13.5-350.5,11.2-348.9z"/>
			<path class="st3" d="M21.8-348.9c0.2-2.8-1.2-5.6-3.5-7.2C18.2-353.3,19.5-350.5,21.8-348.9z"/>
			<path class="st3" d="M11.2-252.9c-0.2-2.8,1.2-5.6,3.5-7.2C14.8-257.3,13.5-254.5,11.2-252.9z"/>
			<path class="st3" d="M21.8-252.9c0.2-2.8-1.2-5.6-3.5-7.2C18.2-257.3,19.5-254.5,21.8-252.9z"/>
			<path class="st3" d="M11.2-244.9c-0.2-2.8,1.2-5.6,3.5-7.2C14.8-249.3,13.5-246.5,11.2-244.9z"/>
			<path class="st3" d="M21.8-244.9c0.2-2.8-1.2-5.6-3.5-7.2C18.2-249.3,19.5-246.5,21.8-244.9z"/>
			<path class="st3" d="M40.2-181.4c-0.2-2.8,1.2-5.6,3.5-7.2C43.8-185.8,42.5-183,40.2-181.4z"/>
			<path class="st3" d="M50.8-181.4c0.2-2.8-1.2-5.6-3.5-7.2C47.2-185.8,48.5-183,50.8-181.4z"/>
			<path class="st3" d="M40.2-173.4c-0.2-2.8,1.2-5.6,3.5-7.2C43.8-177.8,42.5-175,40.2-173.4z"/>
			<path class="st3" d="M50.8-173.4c0.2-2.8-1.2-5.6-3.5-7.2C47.2-177.8,48.5-175,50.8-173.4z"/>
			<path class="st3" d="M69.2-276.9c-0.2-2.8,1.2-5.6,3.5-7.2C72.8-281.3,71.5-278.5,69.2-276.9z"/>
			<path class="st3" d="M79.8-276.9c0.2-2.8-1.2-5.6-3.5-7.2C76.2-281.3,77.5-278.5,79.8-276.9z"/>
			<path class="st3" d="M98.2-285.4c-0.2-2.8,1.2-5.6,3.5-7.2C101.8-289.8,100.5-287,98.2-285.4z"/>
			<path class="st3" d="M108.8-285.4c0.2-2.8-1.2-5.6-3.5-7.2C105.2-289.8,106.5-287,108.8-285.4z"/>
			<path class="st3" d="M98.2-293.4c-0.2-2.8,1.2-5.6,3.5-7.2C101.8-297.8,100.5-295,98.2-293.4z"/>
			<path class="st3" d="M108.8-293.4c0.2-2.8-1.2-5.6-3.5-7.2C105.2-297.8,106.5-295,108.8-293.4z"/>
			<path class="st3" d="M98.2-301.4c-0.2-2.8,1.2-5.6,3.5-7.2C101.8-305.8,100.5-303,98.2-301.4z"/>
			<path class="st3" d="M108.8-301.4c0.2-2.8-1.2-5.6-3.5-7.2C105.2-305.8,106.5-303,108.8-301.4z"/>
			<path class="st3" d="M98.2-309.4c-0.2-2.8,1.2-5.6,3.5-7.2C101.8-313.8,100.5-311,98.2-309.4z"/>
			<path class="st3" d="M108.8-309.4c0.2-2.8-1.2-5.6-3.5-7.2C105.2-313.8,106.5-311,108.8-309.4z"/>
			<path class="st3" d="M98.2-317.4c-0.2-2.8,1.2-5.6,3.5-7.2C101.8-321.8,100.5-319,98.2-317.4z"/>
			<path class="st3" d="M108.8-317.4c0.2-2.8-1.2-5.6-3.5-7.2C105.2-321.8,106.5-319,108.8-317.4z"/>
			<path class="st3" d="M98.2-245.4c-0.2-2.8,1.2-5.6,3.5-7.2C101.8-249.8,100.5-247,98.2-245.4z"/>
			<path class="st3" d="M108.8-245.4c0.2-2.8-1.2-5.6-3.5-7.2C105.2-249.8,106.5-247,108.8-245.4z"/>
			<path class="st3" d="M98.2-277.4c-0.2-2.8,1.2-5.6,3.5-7.2C101.8-281.8,100.5-279,98.2-277.4z"/>
			<path class="st3" d="M108.8-277.4c0.2-2.8-1.2-5.6-3.5-7.2C105.2-281.8,106.5-279,108.8-277.4z"/>
			<path class="st3" d="M98.2-269.4c-0.2-2.8,1.2-5.6,3.5-7.2C101.8-273.8,100.5-271,98.2-269.4z"/>
			<path class="st3" d="M108.8-269.4c0.2-2.8-1.2-5.6-3.5-7.2C105.2-273.8,106.5-271,108.8-269.4z"/>
			<path class="st3" d="M98.2-261.4c-0.2-2.8,1.2-5.6,3.5-7.2C101.8-265.8,100.5-263,98.2-261.4z"/>
			<path class="st3" d="M108.8-261.4c0.2-2.8-1.2-5.6-3.5-7.2C105.2-265.8,106.5-263,108.8-261.4z"/>
			<path class="st3" d="M98.2-253.4c-0.2-2.8,1.2-5.6,3.5-7.2C101.8-257.8,100.5-255,98.2-253.4z"/>
			<path class="st3" d="M108.8-253.4c0.2-2.8-1.2-5.6-3.5-7.2C105.2-257.8,106.5-255,108.8-253.4z"/>
			<path class="st3" d="M69.2-173.4c-0.2-2.8,1.2-5.6,3.5-7.2C72.8-177.8,71.5-175,69.2-173.4z"/>
			<path class="st3" d="M79.8-173.4c0.2-2.8-1.2-5.6-3.5-7.2C76.2-177.8,77.5-175,79.8-173.4z"/>
			<path class="st3" d="M98.2-189.4c-0.2-2.8,1.2-5.6,3.5-7.2C101.8-193.8,100.5-191,98.2-189.4z"/>
			<path class="st3" d="M108.8-189.4c0.2-2.8-1.2-5.6-3.5-7.2C105.2-193.8,106.5-191,108.8-189.4z"/>
			<path class="st3" d="M98.2-197.4c-0.2-2.8,1.2-5.6,3.5-7.2C101.8-201.8,100.5-199,98.2-197.4z"/>
			<path class="st3" d="M108.8-197.4c0.2-2.8-1.2-5.6-3.5-7.2C105.2-201.8,106.5-199,108.8-197.4z"/>
			<path class="st3" d="M98.2-205.4c-0.2-2.8,1.2-5.6,3.5-7.2C101.8-209.8,100.5-207,98.2-205.4z"/>
			<path class="st3" d="M108.8-205.4c0.2-2.8-1.2-5.6-3.5-7.2C105.2-209.8,106.5-207,108.8-205.4z"/>
			<path class="st3" d="M98.2-213.4c-0.2-2.8,1.2-5.6,3.5-7.2C101.8-217.8,100.5-215,98.2-213.4z"/>
			<path class="st3" d="M108.8-213.4c0.2-2.8-1.2-5.6-3.5-7.2C105.2-217.8,106.5-215,108.8-213.4z"/>
			<path class="st3" d="M98.2-221.4c-0.2-2.8,1.2-5.6,3.5-7.2C101.8-225.8,100.5-223,98.2-221.4z"/>
			<path class="st3" d="M108.8-221.4c0.2-2.8-1.2-5.6-3.5-7.2C105.2-225.8,106.5-223,108.8-221.4z"/>
			<path class="st3" d="M98.2-229.4c-0.2-2.8,1.2-5.6,3.5-7.2C101.8-233.8,100.5-231,98.2-229.4z"/>
			<path class="st3" d="M108.8-229.4c0.2-2.8-1.2-5.6-3.5-7.2C105.2-233.8,106.5-231,108.8-229.4z"/>
			<path class="st3" d="M98.2-237.4c-0.2-2.8,1.2-5.6,3.5-7.2C101.8-241.8,100.5-239,98.2-237.4z"/>
			<path class="st3" d="M108.8-237.4c0.2-2.8-1.2-5.6-3.5-7.2C105.2-241.8,106.5-239,108.8-237.4z"/>
			<path class="st3" d="M69.2-228.9c-0.2-2.8,1.2-5.6,3.5-7.2C72.8-233.3,71.5-230.5,69.2-228.9z"/>
			<path class="st3" d="M79.8-228.9c0.2-2.8-1.2-5.6-3.5-7.2C76.2-233.3,77.5-230.5,79.8-228.9z"/>
			<path class="st3" d="M69.2-284.9c-0.2-2.8,1.2-5.6,3.5-7.2C72.8-289.3,71.5-286.5,69.2-284.9z"/>
			<path class="st3" d="M79.8-284.9c0.2-2.8-1.2-5.6-3.5-7.2C76.2-289.3,77.5-286.5,79.8-284.9z"/>
			<path class="st3" d="M69.2-292.9c-0.2-2.8,1.2-5.6,3.5-7.2C72.8-297.3,71.5-294.5,69.2-292.9z"/>
			<path class="st3" d="M79.8-292.9c0.2-2.8-1.2-5.6-3.5-7.2C76.2-297.3,77.5-294.5,79.8-292.9z"/>
			<path class="st3" d="M11.2-276.9c-0.2-2.8,1.2-5.6,3.5-7.2C14.8-281.3,13.5-278.5,11.2-276.9z"/>
			<path class="st3" d="M21.8-276.9c0.2-2.8-1.2-5.6-3.5-7.2C18.2-281.3,19.5-278.5,21.8-276.9z"/>
			<path class="st3" d="M11.2-268.9c-0.2-2.8,1.2-5.6,3.5-7.2C14.8-273.3,13.5-270.5,11.2-268.9z"/>
			<path class="st3" d="M21.8-268.9c0.2-2.8-1.2-5.6-3.5-7.2C18.2-273.3,19.5-270.5,21.8-268.9z"/>
			<path class="st3" d="M11.2-236.9c-0.2-2.8,1.2-5.6,3.5-7.2C14.8-241.3,13.5-238.5,11.2-236.9z"/>
			<path class="st3" d="M21.8-236.9c0.2-2.8-1.2-5.6-3.5-7.2C18.2-241.3,19.5-238.5,21.8-236.9z"/>
			<path class="st3" d="M11.2-228.9c-0.2-2.8,1.2-5.6,3.5-7.2C14.8-233.3,13.5-230.5,11.2-228.9z"/>
			<path class="st3" d="M21.8-228.9c0.2-2.8-1.2-5.6-3.5-7.2C18.2-233.3,19.5-230.5,21.8-228.9z"/>
			<path class="st3" d="M11.2-284.9c-0.2-2.8,1.2-5.6,3.5-7.2C14.8-289.3,13.5-286.5,11.2-284.9z"/>
			<path class="st3" d="M21.8-284.9c0.2-2.8-1.2-5.6-3.5-7.2C18.2-289.3,19.5-286.5,21.8-284.9z"/>
			<path class="st3" d="M11.2-181.4c-0.2-2.8,1.2-5.6,3.5-7.2C14.8-185.8,13.5-183,11.2-181.4z"/>
			<path class="st3" d="M21.8-181.4c0.2-2.8-1.2-5.6-3.5-7.2C18.2-185.8,19.5-183,21.8-181.4z"/>
			<path class="st3" d="M11.2-189.4c-0.2-2.8,1.2-5.6,3.5-7.2C14.8-193.8,13.5-191,11.2-189.4z"/>
			<path class="st3" d="M21.8-189.4c0.2-2.8-1.2-5.6-3.5-7.2C18.2-193.8,19.5-191,21.8-189.4z"/>
		</g>
		<g>
			<line class="st1" x1="31" y1="-535" x2="31" y2="-352"/>
			<line class="st1" x1="2" y1="-535" x2="2" y2="-352"/>
			<line class="st1" x1="60" y1="-535" x2="60" y2="-352"/>
			<line class="st1" x1="89" y1="-535" x2="89" y2="-352"/>
			<path class="st3" d="M103.5-365.5c0.1,2.5,0.9,3.9,1.2,4.3c1.4,2.3-0.1,2.9-0.6,2c0.4,1.2,0.5,2.7-0.5,3c-1.1-0.2-1-1.8-0.5-3
				c-0.6,0.9-2.1,0.4-0.6-2C102.6-361.6,103.4-363,103.5-365.5z"/>
			<line class="st2" x1="45.5" y1="-355.1" x2="45.5" y2="-420.1"/>
			<line class="st2" x1="74.5" y1="-364.4" x2="74.5" y2="-354.8"/>
			<line class="st2" x1="16.5" y1="-380.1" x2="16.5" y2="-354.8"/>
			<path class="st3" d="M40.2-348.9c-0.2-2.8,1.2-5.6,3.5-7.2C43.8-353.3,42.5-350.5,40.2-348.9z"/>
			<path class="st3" d="M50.8-348.9c0.2-2.8-1.2-5.6-3.5-7.2C47.2-353.3,48.5-350.5,50.8-348.9z"/>
			<path class="st3" d="M69.2-348.9c-0.2-2.8,1.2-5.6,3.5-7.2C72.8-353.3,71.5-350.5,69.2-348.9z"/>
			<path class="st3" d="M79.8-348.9c0.2-2.8-1.2-5.6-3.5-7.2C76.2-353.3,77.5-350.5,79.8-348.9z"/>
		</g>
	</g>
</pattern>
<rect class="st4" width="3000" height="2000"/>
</svg>
