<?xml version="1.0" encoding="utf-8"?>
<!-- Generator: Adobe Illustrator 19.2.0, SVG Export Plug-In . SVG Version: 6.00 Build 0)  -->
<svg version="1.1" id="Layer_1" xmlns="http://www.w3.org/2000/svg" xmlns:xlink="http://www.w3.org/1999/xlink" x="0px" y="0px"
	 viewBox="0 0 3000 2000" style="enable-background:new 0 0 3000 2000;" xml:space="preserve">
<style type="text/css">
	.st0{fill:none;}
	.st1{fill:#008243;}
	.st2{fill:#549866;}
	.st3{fill:#F6ACAA;}
	.st4{fill:#F0786A;}
	.st5{fill:url(#Tulips_Color);}
</style>
<pattern  width="72.1" height="72.1" patternUnits="userSpaceOnUse" id="Tulips_Color" viewBox="6 -78.7 72.1 72.1" style="overflow:visible;">
	<g>
		<rect x="6" y="-78.7" class="st0" width="72.1" height="72.1"/>
		<g>
			<rect x="76.7" y="-13.1" class="st1" width="2.8" height="13.1"/>
		</g>
		<g>
			<rect x="4.6" y="-13.1" class="st1" width="2.8" height="13.1"/>
			<rect x="76.7" y="-13.1" class="st1" width="2.8" height="13.1"/>
			<polygon class="st1" points="13.4,-4.7 13.4,-7.7 7.9,-3.6 7.9,-0.6 			"/>
			<polygon class="st1" points="70.7,-4.7 70.7,-7.7 76.2,-3.6 76.2,-0.6 			"/>
			<polygon class="st2" points="13.4,-7.7 13.4,-10.7 7.9,-6.6 7.9,-3.6 			"/>
			<polygon class="st2" points="70.7,-7.7 70.7,-10.7 76.2,-6.6 76.2,-3.6 			"/>
		</g>
		<g>
			<rect x="4.6" y="-13.1" class="st1" width="2.8" height="13.1"/>
		</g>
		<g>
			<polygon class="st3" points="72.1,-27.5 75.1,-24.5 78.1,-27.5 81.1,-24.5 84.1,-27.5 84.1,-22.8 81.1,-19.8 78.1,-22.8 
				75.1,-19.8 72.1,-22.8 			"/>
			<polygon class="st4" points="72.1,-16.5 75.1,-13.5 81.1,-13.5 84.1,-16.5 84.1,-22.8 81.1,-19.8 78.1,-22.8 75.1,-19.8 
				72.1,-22.8 			"/>
			<rect x="76.7" y="-85.2" class="st1" width="2.8" height="13.1"/>
			<rect x="76.7" y="-13.1" class="st1" width="2.8" height="13.1"/>
		</g>
		<g>
			<polygon class="st3" points="0,-27.5 3,-24.5 6,-27.5 9,-24.5 12,-27.5 12,-22.8 9,-19.8 6,-22.8 3,-19.8 0,-22.8 			"/>
			<polygon class="st3" points="72.1,-27.5 75.1,-24.5 78.1,-27.5 81.1,-24.5 84.1,-27.5 84.1,-22.8 81.1,-19.8 78.1,-22.8 
				75.1,-19.8 72.1,-22.8 			"/>
			<polygon class="st3" points="36.1,-63.6 39.1,-60.6 42.1,-63.6 45.1,-60.6 48.1,-63.6 48.1,-58.9 45.1,-55.9 42.1,-58.9 
				39.1,-55.9 36.1,-58.9 			"/>
			<polygon class="st4" points="0,-16.5 3,-13.5 9,-13.5 12,-16.5 12,-22.8 9,-19.8 6,-22.8 3,-19.8 0,-22.8 			"/>
			<polygon class="st4" points="72.1,-16.5 75.1,-13.5 81.1,-13.5 84.1,-16.5 84.1,-22.8 81.1,-19.8 78.1,-22.8 75.1,-19.8 
				72.1,-22.8 			"/>
			<polygon class="st4" points="36.1,-52.6 39.1,-49.6 45.1,-49.6 48.1,-52.6 48.1,-58.9 45.1,-55.9 42.1,-58.9 39.1,-55.9 
				36.1,-58.9 			"/>
			<rect x="4.6" y="-85.2" class="st1" width="2.8" height="13.1"/>
			<rect x="4.6" y="-13.1" class="st1" width="2.8" height="13.1"/>
			<rect x="76.7" y="-13.1" class="st1" width="2.8" height="13.1"/>
			<rect x="76.7" y="-85.2" class="st1" width="2.8" height="13.1"/>
			<rect x="40.7" y="-49.2" class="st1" width="2.7" height="13.1"/>
			<polygon class="st1" points="13.4,-76.8 13.4,-79.8 7.9,-75.7 7.9,-72.7 			"/>
			<polygon class="st1" points="13.4,-4.7 13.4,-7.7 7.9,-3.6 7.9,-0.6 			"/>
			<polygon class="st1" points="70.7,-4.7 70.7,-7.7 76.2,-3.6 76.2,-0.6 			"/>
			<polygon class="st1" points="70.7,-76.8 70.7,-79.8 76.2,-75.7 76.2,-72.7 			"/>
			<polygon class="st1" points="49.4,-40.7 49.4,-43.7 44,-39.6 44,-36.6 			"/>
			<polygon class="st1" points="34.7,-40.7 34.7,-43.7 40.1,-39.6 40.1,-36.6 			"/>
			<polygon class="st2" points="13.4,-79.8 13.4,-82.8 7.9,-78.7 7.9,-75.7 			"/>
			<polygon class="st2" points="13.4,-7.7 13.4,-10.7 7.9,-6.6 7.9,-3.6 			"/>
			<polygon class="st2" points="70.7,-7.7 70.7,-10.7 76.2,-6.6 76.2,-3.6 			"/>
			<polygon class="st2" points="70.7,-79.8 70.7,-82.8 76.2,-78.7 76.2,-75.7 			"/>
			<polygon class="st2" points="49.4,-43.7 49.4,-46.7 44,-42.6 44,-39.6 			"/>
			<polygon class="st2" points="34.7,-43.7 34.7,-46.7 40.1,-42.6 40.1,-39.6 			"/>
		</g>
		<g>
			<polygon class="st3" points="0,-27.5 3,-24.5 6,-27.5 9,-24.5 12,-27.5 12,-22.8 9,-19.8 6,-22.8 3,-19.8 0,-22.8 			"/>
			<polygon class="st4" points="0,-16.5 3,-13.5 9,-13.5 12,-16.5 12,-22.8 9,-19.8 6,-22.8 3,-19.8 0,-22.8 			"/>
			<rect x="4.6" y="-13.1" class="st1" width="2.8" height="13.1"/>
			<rect x="4.6" y="-85.2" class="st1" width="2.8" height="13.1"/>
		</g>
		<g>
			<rect x="76.7" y="-85.2" class="st1" width="2.8" height="13.1"/>
		</g>
		<g>
			<rect x="4.6" y="-85.2" class="st1" width="2.8" height="13.1"/>
			<rect x="76.7" y="-85.2" class="st1" width="2.8" height="13.1"/>
			<polygon class="st1" points="13.4,-76.8 13.4,-79.8 7.9,-75.7 7.9,-72.7 			"/>
			<polygon class="st1" points="70.7,-76.8 70.7,-79.8 76.2,-75.7 76.2,-72.7 			"/>
			<polygon class="st2" points="13.4,-79.8 13.4,-82.8 7.9,-78.7 7.9,-75.7 			"/>
			<polygon class="st2" points="70.7,-79.8 70.7,-82.8 76.2,-78.7 76.2,-75.7 			"/>
		</g>
		<g>
			<rect x="4.6" y="-85.2" class="st1" width="2.8" height="13.1"/>
		</g>
	</g>
</pattern>
<rect class="st5" width="3000" height="2000"/>
</svg>
