<?xml version="1.0" encoding="utf-8"?>
<!-- Generator: Adobe Illustrator 19.2.0, SVG Export Plug-In . SVG Version: 6.00 Build 0)  -->
<svg version="1.1" xmlns="http://www.w3.org/2000/svg" xmlns:xlink="http://www.w3.org/1999/xlink" x="0px" y="0px"
	 viewBox="0 0 2000 3000" style="enable-background:new 0 0 2000 3000;" xml:space="preserve">
<style type="text/css">
	.st0{opacity:0.6;}
	.st1{fill:none;}
	.st2{fill-rule:evenodd;clip-rule:evenodd;fill:#231F20;}
</style>
<g id="Layer_1">
	<g class="st0">
		<g>
			<g>
				<g>
					<g>
						<g>
							<rect x="962.5" class="st1" width="75" height="66.7"/>
						</g>
						<rect x="995.2" y="49.4" class="st2" width="7.5" height="12.4"/>
						<rect x="995.2" y="27.2" class="st2" width="7.5" height="12.4"/>
						<rect x="995.2" y="5.1" class="st2" width="7.5" height="12.4"/>
					</g>
				</g>
				<g>
					<g>
						<g>
							<rect x="962.5" y="66.7" class="st1" width="75" height="66.7"/>
						</g>
						<rect x="995.2" y="116" class="st2" width="7.5" height="12.4"/>
						<rect x="995.2" y="93.8" class="st2" width="7.5" height="12.4"/>
						<rect x="995.2" y="71.7" class="st2" width="7.5" height="12.4"/>
					</g>
				</g>
				<g>
					<g>
						<g>
							<rect x="962.5" y="133.3" class="st1" width="75" height="66.7"/>
						</g>
						<rect x="995.2" y="182.7" class="st2" width="7.5" height="12.4"/>
						<rect x="995.2" y="160.5" class="st2" width="7.5" height="12.4"/>
						<rect x="995.2" y="138.4" class="st2" width="7.5" height="12.4"/>
					</g>
				</g>
				<g>
					<g>
						<g>
							<rect x="962.5" y="200" class="st1" width="75" height="66.7"/>
						</g>
						<rect x="995.2" y="249.4" class="st2" width="7.5" height="12.4"/>
						<rect x="995.2" y="227.2" class="st2" width="7.5" height="12.4"/>
						<rect x="995.2" y="205.1" class="st2" width="7.5" height="12.4"/>
					</g>
				</g>
				<g>
					<g>
						<g>
							<rect x="962.5" y="266.7" class="st1" width="75" height="66.7"/>
						</g>
						<rect x="995.2" y="316" class="st2" width="7.5" height="12.4"/>
						<rect x="995.2" y="293.8" class="st2" width="7.5" height="12.4"/>
						<rect x="995.2" y="271.7" class="st2" width="7.5" height="12.4"/>
					</g>
				</g>
				<g>
					<g>
						<g>
							<rect x="962.5" y="333.3" class="st1" width="75" height="66.7"/>
						</g>
						<rect x="995.2" y="382.7" class="st2" width="7.5" height="12.4"/>
						<rect x="995.2" y="360.5" class="st2" width="7.5" height="12.4"/>
						<rect x="995.2" y="338.4" class="st2" width="7.5" height="12.4"/>
					</g>
				</g>
				<g>
					<g>
						<g>
							<rect x="962.5" y="400" class="st1" width="75" height="66.7"/>
						</g>
						<rect x="995.2" y="449.4" class="st2" width="7.5" height="12.4"/>
						<rect x="995.2" y="427.2" class="st2" width="7.5" height="12.4"/>
						<rect x="995.2" y="405.1" class="st2" width="7.5" height="12.4"/>
					</g>
				</g>
				<g>
					<g>
						<g>
							<rect x="962.5" y="466.7" class="st1" width="75" height="66.7"/>
						</g>
						<rect x="995.2" y="516" class="st2" width="7.5" height="12.4"/>
						<rect x="995.2" y="493.8" class="st2" width="7.5" height="12.4"/>
						<rect x="995.2" y="471.7" class="st2" width="7.5" height="12.4"/>
					</g>
				</g>
				<g>
					<g>
						<g>
							<rect x="962.5" y="533.3" class="st1" width="75" height="66.7"/>
						</g>
						<rect x="995.2" y="582.7" class="st2" width="7.5" height="12.4"/>
						<rect x="995.2" y="560.5" class="st2" width="7.5" height="12.4"/>
						<rect x="995.2" y="538.4" class="st2" width="7.5" height="12.4"/>
					</g>
				</g>
				<g>
					<g>
						<g>
							<rect x="962.5" y="600" class="st1" width="75" height="66.7"/>
						</g>
						<rect x="995.2" y="649.4" class="st2" width="7.5" height="12.4"/>
						<rect x="995.2" y="627.2" class="st2" width="7.5" height="12.4"/>
						<rect x="995.2" y="605.1" class="st2" width="7.5" height="12.4"/>
					</g>
				</g>
				<g>
					<g>
						<g>
							<rect x="962.5" y="666.7" class="st1" width="75" height="66.7"/>
						</g>
						<rect x="995.2" y="716" class="st2" width="7.5" height="12.4"/>
						<rect x="995.2" y="693.8" class="st2" width="7.5" height="12.4"/>
						<rect x="995.2" y="671.7" class="st2" width="7.5" height="12.4"/>
					</g>
				</g>
				<g>
					<g>
						<g>
							<rect x="962.5" y="733.3" class="st1" width="75" height="66.7"/>
						</g>
						<rect x="995.2" y="782.7" class="st2" width="7.5" height="12.4"/>
						<rect x="995.2" y="760.5" class="st2" width="7.5" height="12.4"/>
						<rect x="995.2" y="738.4" class="st2" width="7.5" height="12.4"/>
					</g>
				</g>
				<g>
					<g>
						<g>
							<rect x="962.5" y="800" class="st1" width="75" height="66.7"/>
						</g>
						<rect x="995.2" y="849.4" class="st2" width="7.5" height="12.4"/>
						<rect x="995.2" y="827.2" class="st2" width="7.5" height="12.4"/>
						<rect x="995.2" y="805.1" class="st2" width="7.5" height="12.4"/>
					</g>
				</g>
				<g>
					<g>
						<g>
							<rect x="962.5" y="866.7" class="st1" width="75" height="66.7"/>
						</g>
						<rect x="995.2" y="916" class="st2" width="7.5" height="12.4"/>
						<rect x="995.2" y="893.8" class="st2" width="7.5" height="12.4"/>
						<rect x="995.2" y="871.7" class="st2" width="7.5" height="12.4"/>
					</g>
				</g>
				<g>
					<g>
						<g>
							<rect x="962.5" y="933.3" class="st1" width="75" height="66.7"/>
						</g>
						<rect x="995.2" y="982.7" class="st2" width="7.5" height="12.4"/>
						<rect x="995.2" y="960.5" class="st2" width="7.5" height="12.4"/>
						<rect x="995.2" y="938.4" class="st2" width="7.5" height="12.4"/>
					</g>
				</g>
				<g>
					<g>
						<g>
							<rect x="962.5" y="1000" class="st1" width="75" height="66.7"/>
						</g>
						<rect x="995.2" y="1049.4" class="st2" width="7.5" height="12.4"/>
						<rect x="995.2" y="1027.2" class="st2" width="7.5" height="12.4"/>
						<rect x="995.2" y="1005.1" class="st2" width="7.5" height="12.4"/>
					</g>
				</g>
				<g>
					<g>
						<g>
							<rect x="962.5" y="1066.7" class="st1" width="75" height="66.7"/>
						</g>
						<rect x="995.2" y="1116" class="st2" width="7.5" height="12.4"/>
						<rect x="995.2" y="1093.8" class="st2" width="7.5" height="12.4"/>
						<rect x="995.2" y="1071.7" class="st2" width="7.5" height="12.4"/>
					</g>
				</g>
				<g>
					<g>
						<g>
							<rect x="962.5" y="1133.3" class="st1" width="75" height="66.7"/>
						</g>
						<rect x="995.2" y="1182.7" class="st2" width="7.5" height="12.4"/>
						<rect x="995.2" y="1160.5" class="st2" width="7.5" height="12.4"/>
						<rect x="995.2" y="1138.4" class="st2" width="7.5" height="12.4"/>
					</g>
				</g>
				<g>
					<g>
						<g>
							<rect x="962.5" y="1200" class="st1" width="75" height="66.7"/>
						</g>
						<rect x="995.2" y="1249.4" class="st2" width="7.5" height="12.4"/>
						<rect x="995.2" y="1227.2" class="st2" width="7.5" height="12.4"/>
						<rect x="995.2" y="1205.1" class="st2" width="7.5" height="12.4"/>
					</g>
				</g>
				<g>
					<g>
						<g>
							<rect x="962.5" y="1266.7" class="st1" width="75" height="66.7"/>
						</g>
						<rect x="995.2" y="1316" class="st2" width="7.5" height="12.4"/>
						<rect x="995.2" y="1293.8" class="st2" width="7.5" height="12.4"/>
						<rect x="995.2" y="1271.7" class="st2" width="7.5" height="12.4"/>
					</g>
				</g>
				<g>
					<g>
						<g>
							<rect x="962.5" y="1333.3" class="st1" width="75" height="66.7"/>
						</g>
						<rect x="995.2" y="1382.7" class="st2" width="7.5" height="12.4"/>
						<rect x="995.2" y="1360.5" class="st2" width="7.5" height="12.4"/>
						<rect x="995.2" y="1338.4" class="st2" width="7.5" height="12.4"/>
					</g>
				</g>
				<g>
					<g>
						<g>
							<rect x="962.5" y="1400" class="st1" width="75" height="66.7"/>
						</g>
						<rect x="995.2" y="1449.4" class="st2" width="7.5" height="12.4"/>
						<rect x="995.2" y="1427.2" class="st2" width="7.5" height="12.4"/>
						<rect x="995.2" y="1405.1" class="st2" width="7.5" height="12.4"/>
					</g>
				</g>
				<g>
					<g>
						<g>
							<rect x="962.5" y="1466.7" class="st1" width="75" height="66.7"/>
						</g>
						<rect x="995.2" y="1516" class="st2" width="7.5" height="12.4"/>
						<rect x="995.2" y="1493.8" class="st2" width="7.5" height="12.4"/>
						<rect x="995.2" y="1471.7" class="st2" width="7.5" height="12.4"/>
					</g>
				</g>
				<g>
					<g>
						<g>
							<rect x="962.5" y="1533.3" class="st1" width="75" height="66.7"/>
						</g>
						<rect x="995.2" y="1582.7" class="st2" width="7.5" height="12.4"/>
						<rect x="995.2" y="1560.5" class="st2" width="7.5" height="12.4"/>
						<rect x="995.2" y="1538.4" class="st2" width="7.5" height="12.4"/>
					</g>
				</g>
				<g>
					<g>
						<g>
							<rect x="962.5" y="1600" class="st1" width="75" height="66.7"/>
						</g>
						<rect x="995.2" y="1649.4" class="st2" width="7.5" height="12.4"/>
						<rect x="995.2" y="1627.2" class="st2" width="7.5" height="12.4"/>
						<rect x="995.2" y="1605.1" class="st2" width="7.5" height="12.4"/>
					</g>
				</g>
				<g>
					<g>
						<g>
							<rect x="962.5" y="1666.7" class="st1" width="75" height="66.7"/>
						</g>
						<rect x="995.2" y="1716" class="st2" width="7.5" height="12.4"/>
						<rect x="995.2" y="1693.8" class="st2" width="7.5" height="12.4"/>
						<rect x="995.2" y="1671.7" class="st2" width="7.5" height="12.4"/>
					</g>
				</g>
				<g>
					<g>
						<g>
							<rect x="962.5" y="1733.3" class="st1" width="75" height="66.7"/>
						</g>
						<rect x="995.2" y="1782.7" class="st2" width="7.5" height="12.4"/>
						<rect x="995.2" y="1760.5" class="st2" width="7.5" height="12.4"/>
						<rect x="995.2" y="1738.4" class="st2" width="7.5" height="12.4"/>
					</g>
				</g>
				<g>
					<g>
						<g>
							<rect x="962.5" y="1800" class="st1" width="75" height="66.7"/>
						</g>
						<rect x="995.2" y="1849.4" class="st2" width="7.5" height="12.4"/>
						<rect x="995.2" y="1827.2" class="st2" width="7.5" height="12.4"/>
						<rect x="995.2" y="1805.1" class="st2" width="7.5" height="12.4"/>
					</g>
				</g>
				<g>
					<g>
						<g>
							<rect x="962.5" y="1866.7" class="st1" width="75" height="66.7"/>
						</g>
						<rect x="995.2" y="1916" class="st2" width="7.5" height="12.4"/>
						<rect x="995.2" y="1893.8" class="st2" width="7.5" height="12.4"/>
						<rect x="995.2" y="1871.7" class="st2" width="7.5" height="12.4"/>
					</g>
				</g>
				<g>
					<g>
						<g>
							<rect x="962.5" y="1933.3" class="st1" width="75" height="66.7"/>
						</g>
						<rect x="995.2" y="1982.7" class="st2" width="7.5" height="12.4"/>
						<rect x="995.2" y="1960.5" class="st2" width="7.5" height="12.4"/>
						<rect x="995.2" y="1938.4" class="st2" width="7.5" height="12.4"/>
					</g>
				</g>
				<g>
					<g>
						<g>
							<rect x="962.5" y="2000" class="st1" width="75" height="66.7"/>
						</g>
						<rect x="995.2" y="2049.4" class="st2" width="7.5" height="12.4"/>
						<rect x="995.2" y="2027.2" class="st2" width="7.5" height="12.4"/>
						<rect x="995.2" y="2005.1" class="st2" width="7.5" height="12.4"/>
					</g>
				</g>
				<g>
					<g>
						<g>
							<rect x="962.5" y="2066.7" class="st1" width="75" height="66.7"/>
						</g>
						<rect x="995.2" y="2116" class="st2" width="7.5" height="12.4"/>
						<rect x="995.2" y="2093.8" class="st2" width="7.5" height="12.4"/>
						<rect x="995.2" y="2071.7" class="st2" width="7.5" height="12.4"/>
					</g>
				</g>
				<g>
					<g>
						<g>
							<rect x="962.5" y="2133.3" class="st1" width="75" height="66.7"/>
						</g>
						<rect x="995.2" y="2182.7" class="st2" width="7.5" height="12.4"/>
						<rect x="995.2" y="2160.5" class="st2" width="7.5" height="12.4"/>
						<rect x="995.2" y="2138.4" class="st2" width="7.5" height="12.4"/>
					</g>
				</g>
				<g>
					<g>
						<g>
							<rect x="962.5" y="2200" class="st1" width="75" height="66.7"/>
						</g>
						<rect x="995.2" y="2249.4" class="st2" width="7.5" height="12.4"/>
						<rect x="995.2" y="2227.2" class="st2" width="7.5" height="12.4"/>
						<rect x="995.2" y="2205.1" class="st2" width="7.5" height="12.4"/>
					</g>
				</g>
				<g>
					<g>
						<g>
							<rect x="962.5" y="2266.7" class="st1" width="75" height="66.7"/>
						</g>
						<rect x="995.2" y="2316" class="st2" width="7.5" height="12.4"/>
						<rect x="995.2" y="2293.8" class="st2" width="7.5" height="12.4"/>
						<rect x="995.2" y="2271.7" class="st2" width="7.5" height="12.4"/>
					</g>
				</g>
				<g>
					<g>
						<g>
							<rect x="962.5" y="2333.3" class="st1" width="75" height="66.7"/>
						</g>
						<rect x="995.2" y="2382.7" class="st2" width="7.5" height="12.4"/>
						<rect x="995.2" y="2360.5" class="st2" width="7.5" height="12.4"/>
						<rect x="995.2" y="2338.4" class="st2" width="7.5" height="12.4"/>
					</g>
				</g>
				<g>
					<g>
						<g>
							<rect x="962.5" y="2400" class="st1" width="75" height="66.7"/>
						</g>
						<rect x="995.2" y="2449.4" class="st2" width="7.5" height="12.4"/>
						<rect x="995.2" y="2427.2" class="st2" width="7.5" height="12.4"/>
						<rect x="995.2" y="2405.1" class="st2" width="7.5" height="12.4"/>
					</g>
				</g>
				<g>
					<g>
						<g>
							<rect x="962.5" y="2466.7" class="st1" width="75" height="66.7"/>
						</g>
						<rect x="995.2" y="2516" class="st2" width="7.5" height="12.4"/>
						<rect x="995.2" y="2493.8" class="st2" width="7.5" height="12.4"/>
						<rect x="995.2" y="2471.7" class="st2" width="7.5" height="12.4"/>
					</g>
				</g>
				<g>
					<g>
						<g>
							<rect x="962.5" y="2533.3" class="st1" width="75" height="66.7"/>
						</g>
						<rect x="995.2" y="2582.7" class="st2" width="7.5" height="12.4"/>
						<rect x="995.2" y="2560.5" class="st2" width="7.5" height="12.4"/>
						<rect x="995.2" y="2538.4" class="st2" width="7.5" height="12.4"/>
					</g>
				</g>
				<g>
					<g>
						<g>
							<rect x="962.5" y="2600" class="st1" width="75" height="66.7"/>
						</g>
						<rect x="995.2" y="2649.4" class="st2" width="7.5" height="12.4"/>
						<rect x="995.2" y="2627.2" class="st2" width="7.5" height="12.4"/>
						<rect x="995.2" y="2605.1" class="st2" width="7.5" height="12.4"/>
					</g>
				</g>
				<g>
					<g>
						<g>
							<rect x="962.5" y="2666.7" class="st1" width="75" height="66.7"/>
						</g>
						<rect x="995.2" y="2716" class="st2" width="7.5" height="12.4"/>
						<rect x="995.2" y="2693.8" class="st2" width="7.5" height="12.4"/>
						<rect x="995.2" y="2671.7" class="st2" width="7.5" height="12.4"/>
					</g>
				</g>
				<g>
					<g>
						<g>
							<rect x="962.5" y="2733.3" class="st1" width="75" height="66.7"/>
						</g>
						<rect x="995.2" y="2782.7" class="st2" width="7.5" height="12.4"/>
						<rect x="995.2" y="2760.5" class="st2" width="7.5" height="12.4"/>
						<rect x="995.2" y="2738.4" class="st2" width="7.5" height="12.4"/>
					</g>
				</g>
				<g>
					<g>
						<g>
							<rect x="962.5" y="2800" class="st1" width="75" height="66.7"/>
						</g>
						<rect x="995.2" y="2849.4" class="st2" width="7.5" height="12.4"/>
						<rect x="995.2" y="2827.2" class="st2" width="7.5" height="12.4"/>
						<rect x="995.2" y="2805.1" class="st2" width="7.5" height="12.4"/>
					</g>
				</g>
				<g>
					<g>
						<g>
							<rect x="962.5" y="2866.7" class="st1" width="75" height="66.7"/>
						</g>
						<rect x="995.2" y="2916" class="st2" width="7.5" height="12.4"/>
						<rect x="995.2" y="2893.8" class="st2" width="7.5" height="12.4"/>
						<rect x="995.2" y="2871.7" class="st2" width="7.5" height="12.4"/>
					</g>
				</g>
				<g>
					<g>
						<g>
							<rect x="962.5" y="2933.3" class="st1" width="75" height="66.7"/>
						</g>
						<rect x="995.2" y="2982.7" class="st2" width="7.5" height="12.4"/>
						<rect x="995.2" y="2960.5" class="st2" width="7.5" height="12.4"/>
						<rect x="995.2" y="2938.4" class="st2" width="7.5" height="12.4"/>
					</g>
				</g>
			</g>
		</g>
	</g>
</g>
<g id="Layer_2">
</g>
</svg>
