<?xml version="1.0" encoding="utf-8"?>
<!-- Generator: Adobe Illustrator 19.2.0, SVG Export Plug-In . SVG Version: 6.00 Build 0)  -->
<svg version="1.1" id="Layer_1" xmlns="http://www.w3.org/2000/svg" xmlns:xlink="http://www.w3.org/1999/xlink" x="0px" y="0px"
	 viewBox="0 0 3000 1000" style="enable-background:new 0 0 3000 1000;" xml:space="preserve">
<style type="text/css">
	.st0{opacity:0.32;}
	.st1{fill:none;stroke:#231F20;stroke-width:5;stroke-linecap:round;stroke-miterlimit:10;}
	.st2{opacity:0.42;}
	.st3{fill:none;}
	.st4{fill-rule:evenodd;clip-rule:evenodd;fill:#231F20;}
</style>
<g class="st0">
	<g>
		<path class="st1" d="M1500,172.4"/>
	</g>
</g>
<g class="st2">
	<g>
		<g>
			<g>
				<g>
					<g>
						<path class="st3" d="M1537,1005.9c0,0,0.6-3.8,1.6-9.5c0.5-2.8,1.2-6.1,1.9-9.6c0.7-3.5,1.6-7.2,2.4-10.9
							c0.9-3.7,1.8-7.4,2.7-10.8c1-3.4,1.8-6.6,2.6-9.3c1.7-5.4,2.8-9,2.8-9l-71.4-22.9c0,0-1.3,4.4-3.3,10.9
							c-0.9,3.3-2,7.1-3.1,11.2c-1.1,4.1-2.1,8.5-3.2,12.9c-1,4.4-2,8.8-2.8,12.9c-0.8,4.1-1.5,8-2.2,11.3
							c-1.1,6.6-1.9,11.1-1.9,11.1L1537,1005.9z"/>
					</g>
					<path class="st4" d="M1507.8,951.1l7.2,2c0,0,0.8-2.9,1.6-5.9c0.9-2.9,1.8-5.8,1.8-5.8l-7.2-2.2c0,0-0.9,3-1.8,5.9
						C1508.6,948.1,1507.8,951.1,1507.8,951.1z"/>
					<path class="st4" d="M1502.5,972.8l7.3,1.6c0,0,0.7-3,1.3-6c0.7-3,1.5-5.9,1.5-5.9l-7.3-1.8c0,0-0.7,3-1.5,6
						C1503.1,969.7,1502.5,972.8,1502.5,972.8z"/>
					<path class="st4" d="M1498.2,994.6l7.4,1.3c0,0,0.5-3,1-6c0.6-3,1.2-6,1.2-6l-7.4-1.4c0,0-0.6,3-1.2,6.1
						C1498.8,991.5,1498.2,994.6,1498.2,994.6z"/>
				</g>
			</g>
			<g>
				<g>
					<g>
						<path class="st3" d="M1550.9,946.7c0,0,1.2-3.6,3-8.9c0.9-2.7,2.1-5.7,3.3-9c1.2-3.3,2.7-6.7,4.1-10.2c1.5-3.4,3-6.8,4.4-10
							c1.5-3.1,2.9-6,4.1-8.5c1.2-2.5,2.4-4.5,3.1-5.9c0.8-1.4,1.2-2.2,1.2-2.2l-65.9-35.9c0,0-0.5,1-1.5,2.8
							c-0.9,1.8-2.4,4.3-3.9,7.4c-1.5,3.1-3.3,6.7-5.2,10.7c-1.8,3.9-3.7,8.1-5.5,12.4c-1.7,4.3-3.5,8.5-5,12.5
							c-1.5,4-2.9,7.8-4.1,11c-2.2,6.5-3.7,10.8-3.7,10.8L1550.9,946.7z"/>
					</g>
					<path class="st4" d="M1531,888.3l6.8,3.2c0,0,1.3-2.7,2.7-5.5c0.3-0.7,0.7-1.4,1-2c0.3-0.6,0.6-1.2,0.9-1.7
						c0.5-1,0.9-1.7,0.9-1.7l-6.6-3.5c0,0-0.4,0.7-0.9,1.7c-0.3,0.5-0.6,1.1-0.9,1.8c-0.3,0.7-0.7,1.4-1,2.1
						C1532.4,885.5,1531,888.3,1531,888.3z"/>
					<path class="st4" d="M1522,908.8l7,2.8c0,0,1.2-2.8,2.3-5.6c0.6-1.4,1.2-2.8,1.7-3.8c0.5-1,0.8-1.7,0.8-1.7l-6.9-3
						c0,0-0.3,0.7-0.8,1.8c-0.5,1.1-1.1,2.5-1.7,3.9C1523.2,905.9,1522,908.8,1522,908.8z"/>
					<path class="st4" d="M1514.3,929.6l7.1,2.4c0,0,1-2.9,2-5.8c1.1-2.9,2.1-5.7,2.1-5.7l-7-2.6c0,0-1.1,2.9-2.2,5.8
						C1515.3,926.7,1514.3,929.6,1514.3,929.6z"/>
				</g>
			</g>
			<g>
				<g>
					<g>
						<path class="st3" d="M1574.2,892.1c0,0,0.4-0.8,1.2-2.2c0.8-1.4,2-3.4,3.3-5.8c0.7-1.2,1.4-2.5,2.3-3.8
							c0.8-1.3,1.7-2.7,2.6-4.2c0.9-1.4,1.8-3,2.8-4.5c1-1.5,2.1-3,3.1-4.5c1-1.5,2-3,3.1-4.5c1.1-1.4,2.1-2.9,3.2-4.2
							c1-1.4,2-2.7,3-4c1-1.2,1.9-2.4,2.8-3.4c1.7-2.2,3.2-3.9,4.2-5.1c1-1.2,1.6-1.9,1.6-1.9l-56.7-49c0,0-0.8,0.9-2.1,2.5
							c-1.3,1.6-3.2,3.8-5.4,6.5c-1.1,1.4-2.3,2.9-3.5,4.4c-1.2,1.6-2.5,3.3-3.8,5c-1.3,1.8-2.7,3.6-4,5.4c-1.4,1.8-2.6,3.8-4,5.7
							c-1.3,1.9-2.6,3.8-3.9,5.7c-1.3,1.9-2.4,3.8-3.6,5.7c-1.2,1.8-2.3,3.6-3.4,5.3c-1.1,1.7-2,3.3-2.9,4.8c-1.7,3-3.2,5.5-4.2,7.3
							c-1,1.8-1.5,2.8-1.5,2.8L1574.2,892.1z"/>
					</g>
					<path class="st4" d="M1566,831.2l5.9,4.6c0,0,0.1-0.2,0.3-0.4c0.2-0.3,0.5-0.7,0.8-1.1c0.7-0.9,1.7-2.1,2.6-3.3
						c1-1.2,1.9-2.4,2.6-3.3c0.7-0.9,1.2-1.4,1.2-1.4l-5.8-4.8c0,0-0.5,0.6-1.3,1.5c-0.7,0.9-1.7,2.1-2.7,3.3
						c-1,1.2-1.9,2.4-2.7,3.3c-0.4,0.5-0.7,0.8-0.9,1.1C1566.1,831,1566,831.2,1566,831.2z"/>
					<path class="st4" d="M1553,849.4l6.3,4.1c0,0,1.7-2.5,3.4-5c0.9-1.3,1.7-2.5,2.4-3.4c0.6-0.9,1.1-1.5,1.1-1.5l-6.1-4.4
						c0,0-0.5,0.6-1.1,1.6c-0.7,1-1.5,2.2-2.4,3.5C1554.8,846.8,1553,849.4,1553,849.4z"/>
					<path class="st4" d="M1541.4,868.4l6.5,3.7c0,0,1.5-2.6,3.1-5.3c1.5-2.7,3.1-5.2,3.1-5.2l-6.4-3.9c0,0-1.7,2.6-3.2,5.3
						C1543,865.7,1541.4,868.4,1541.4,868.4z"/>
				</g>
			</g>
			<g>
				<g>
					<g>
						<path class="st3" d="M1607.4,843.9c0,0,0.6-0.7,1.6-1.9c1.1-1.2,2.6-2.9,4.4-4.9c3.7-4,8.8-9.1,14.1-14
							c5.4-4.9,11-9.6,15.4-13.1c2.2-1.7,4-3.2,5.4-4.2c1.3-1,2.1-1.6,2.1-1.6l-45.2-59.8c0,0-0.9,0.7-2.5,1.9
							c-1.6,1.2-3.8,3-6.5,5.1c-5.4,4.3-12.5,10.2-19.4,16.6c-6.9,6.3-13.5,13.1-18.3,18.2c-2.4,2.6-4.3,4.8-5.7,6.3
							c-1.4,1.5-2.1,2.4-2.1,2.4L1607.4,843.9z"/>
					</g>
					<path class="st4" d="M1612.5,783l4.8,5.8c0,0,2.4-1.9,4.7-3.9c2.4-1.9,4.8-3.8,4.8-3.8l-4.6-5.9c0,0-2.4,1.9-4.9,3.9
						C1614.9,781,1612.5,783,1612.5,783z"/>
					<path class="st4" d="M1595.8,797.8l5.2,5.4c0,0,2.2-2.1,4.4-4.2c2.3-2,4.5-4.1,4.5-4.1l-5-5.6c0,0-2.3,2.1-4.6,4.2
						C1598.1,795.7,1595.8,797.8,1595.8,797.8z"/>
					<path class="st4" d="M1580.4,813.9l5.6,5c0,0,0.5-0.6,1.3-1.4c0.8-0.8,1.8-2,2.8-3.1c2.1-2.2,4.2-4.4,4.2-4.4l-5.4-5.2
						c0,0-2.1,2.3-4.3,4.5c-1.1,1.1-2.1,2.3-2.9,3.2C1580.9,813.3,1580.4,813.9,1580.4,813.9z"/>
				</g>
			</g>
			<g>
				<g>
					<g>
						<path class="st3" d="M1650.4,804.2c0,0,0.8-0.6,2.1-1.6c1.4-1,3.3-2.4,5.7-4.2c4.7-3.5,11.3-8.1,18.1-12.9
							c6.8-4.8,14-9.8,19.3-13.8c2.7-2,4.9-3.7,6.5-4.9c1.6-1.2,2.5-1.9,2.5-1.9l-45.9-59.3c0,0-0.7,0.6-2.1,1.6
							c-1.3,1-3.2,2.4-5.5,4.1c-4.7,3.4-11.1,8-17.9,12.8c-6.8,4.8-13.8,9.7-19.2,13.6c-2.7,1.9-4.9,3.6-6.5,4.8
							c-1.6,1.2-2.5,1.9-2.5,1.9L1650.4,804.2z"/>
					</g>
					<path class="st4" d="M1666.3,743.5l4.4,6.1c0,0,2.5-1.8,5-3.7c2.5-1.9,5-3.7,5-3.7l-4.5-6c0,0-2.5,1.8-4.9,3.7
						C1668.8,741.7,1666.3,743.5,1666.3,743.5z"/>
					<polygon class="st4" points="1648.2,756.3 1652.5,762.4 1662.7,755.3 1658.4,749.2 					"/>
					<path class="st4" d="M1630.2,769.2l4.5,6c0,0,0.6-0.5,1.5-1.1c0.9-0.7,2.2-1.6,3.4-2.5c2.5-1.8,5-3.6,5-3.6l-4.4-6.1
						c0,0-2.5,1.8-5,3.6c-1.3,0.9-2.5,1.8-3.4,2.5C1630.9,768.7,1630.2,769.2,1630.2,769.2z"/>
				</g>
			</g>
			<g>
				<g>
					<g>
						<path class="st3" d="M1704.7,765c0,0,3.6-2.8,9-7.2c5.4-4.4,12.6-10.7,19.5-17.5c6.9-6.8,13.4-14,18-19.6
							c2.3-2.8,4.2-5.2,5.5-6.8c0.7-0.8,1.2-1.5,1.5-1.9c0.3-0.5,0.5-0.7,0.5-0.7l-59.7-45.4c0,0-0.1,0.2-0.4,0.5
							c-0.2,0.3-0.6,0.8-1.1,1.4c-1,1.2-2.3,2.9-4,4.9c-3.3,4-8,9.2-13,14.1c-5,4.9-10.3,9.6-14.6,13.1c-4.2,3.5-7.2,5.8-7.2,5.8
							L1704.7,765z"/>
					</g>
					<path class="st4" d="M1715.9,700.2l5.6,5c0,0,0.5-0.6,1.3-1.5c0.8-0.9,1.8-2.1,2.8-3.3c1-1.2,2-2.4,2.8-3.4
						c0.7-0.9,1.2-1.5,1.2-1.5l-5.9-4.7c0,0-0.5,0.6-1.2,1.5c-0.7,0.9-1.7,2.1-2.7,3.2c-1,1.2-2,2.3-2.7,3.2
						C1716.4,699.7,1715.9,700.2,1715.9,700.2z"/>
					<path class="st4" d="M1700.6,715.9l5.1,5.5c0,0,0.1-0.1,0.4-0.4c0.3-0.2,0.6-0.6,1-1c0.8-0.8,2-1.9,3.1-3
						c1.1-1.1,2.2-2.2,3.1-3.1c0.8-0.8,1.4-1.4,1.4-1.4l-5.4-5.2c0,0-0.5,0.5-1.3,1.4c-0.8,0.8-1.9,1.9-3,3c-1.1,1.1-2.2,2.1-3,2.9
						c-0.4,0.4-0.8,0.7-1,1C1700.8,715.8,1700.6,715.9,1700.6,715.9z"/>
					<path class="st4" d="M1684,730.2l4.7,5.9c0,0,2.5-1.9,4.9-4c2.4-2,4.8-4.1,4.8-4.1l-4.9-5.7c0,0-2.3,2-4.7,4
						C1686.5,728.3,1684,730.2,1684,730.2z"/>
				</g>
			</g>
			<g>
				<g>
					<g>
						<path class="st3" d="M1758.7,711.3c0,0,0.7-1,2-2.7c0.6-0.8,1.4-1.9,2.3-3.1c0.8-1.2,1.8-2.5,2.8-4c4.2-5.9,9.2-14,14-22.2
							c4.6-8.3,9-16.8,11.9-23.3c1.4-3.2,2.7-5.9,3.5-7.8c0.8-1.9,1.2-3,1.2-3l-69.3-28.6c0,0-0.3,0.8-0.9,2.3
							c-0.6,1.5-1.6,3.5-2.6,5.9c-2.2,4.9-5.5,11.3-8.9,17.5c-3.6,6.1-7.3,12.2-10.4,16.5c-0.8,1.1-1.4,2.1-2.1,3
							c-0.6,0.9-1.2,1.6-1.7,2.2c-0.9,1.2-1.4,1.9-1.4,1.9L1758.7,711.3z"/>
					</g>
					<path class="st4" d="M1752.2,645.5l6.7,3.3c0,0,0.4-0.7,0.9-1.8c0.5-1,1.2-2.5,1.8-3.9c1.3-2.9,2.6-5.7,2.6-5.7l-6.9-3
						c0,0-1.3,2.8-2.5,5.6c-0.6,1.4-1.2,2.8-1.8,3.8C1752.6,644.8,1752.2,645.5,1752.2,645.5z"/>
					<path class="st4" d="M1741.8,664.8l6.4,3.9c0,0,1.6-2.7,3.2-5.4c1.5-2.8,3-5.5,3-5.5l-6.6-3.5c0,0-1.5,2.7-2.9,5.4
						C1743.3,662.1,1741.8,664.8,1741.8,664.8z"/>
					<path class="st4" d="M1729.7,683l6.1,4.4c0,0,0.1-0.2,0.3-0.4c0.2-0.3,0.5-0.7,0.8-1.2c0.7-1,1.6-2.3,2.5-3.6
						c1.8-2.6,3.5-5.2,3.5-5.2l-6.3-4.1c0,0-1.6,2.6-3.4,5.1c-0.9,1.3-1.7,2.5-2.4,3.5c-0.3,0.5-0.6,0.9-0.8,1.1
						C1729.8,682.9,1729.7,683,1729.7,683z"/>
				</g>
			</g>
			<g>
				<g>
					<g>
						<path class="st3" d="M1796.4,645.2c0,0,0.4-1.1,1.2-3c0.4-1,0.9-2.1,1.4-3.5c0.5-1.3,1.1-2.9,1.7-4.5c1.2-3.3,2.7-7.2,4-11.4
							c0.7-2.1,1.4-4.3,2.1-6.4c0.7-2.2,1.3-4.5,1.9-6.7c0.6-2.2,1.3-4.5,1.9-6.7c0.5-2.2,1.1-4.4,1.6-6.5c0.5-2.1,1-4.2,1.5-6.1
							c0.4-1.9,0.8-3.8,1.1-5.5c0.7-3.4,1.3-6.2,1.6-8.2c0.3-2,0.5-3.1,0.5-3.1l-73.8-13.1c0,0-0.2,0.9-0.4,2.5
							c-0.3,1.6-0.8,3.9-1.3,6.6c-0.3,1.4-0.6,2.8-0.9,4.4c-0.3,1.5-0.8,3.2-1.2,4.8c-0.4,1.7-0.8,3.4-1.3,5.2
							c-0.5,1.7-1,3.5-1.5,5.2c-0.5,1.8-1,3.5-1.5,5.2c-0.6,1.7-1.1,3.4-1.6,5c-1,3.3-2.1,6.2-3.1,8.8c-0.5,1.3-0.9,2.4-1.3,3.5
							c-0.4,1-0.8,1.9-1.1,2.6c-0.6,1.5-0.9,2.3-0.9,2.3L1796.4,645.2z"/>
					</g>
					<path class="st4" d="M1774,583.4l7.3,1.7c0,0,0-0.2,0.1-0.5c0.1-0.3,0.2-0.8,0.3-1.4c0.2-1.2,0.6-2.7,0.9-4.2
						c0.6-3.1,1.3-6.1,1.3-6.1l-7.4-1.4c0,0-0.6,3-1.2,6c-0.3,1.5-0.6,3-0.9,4.1c-0.1,0.6-0.2,1-0.3,1.4
						C1774,583.2,1774,583.4,1774,583.4z"/>
					<path class="st4" d="M1768.3,604.6l7.2,2.2c0,0,0.3-0.7,0.6-1.9c0.3-1.1,0.7-2.6,1.2-4.2c0.4-1.5,0.9-3,1.2-4.2
						c0.2-0.6,0.3-1,0.4-1.4c0.1-0.3,0.1-0.5,0.1-0.5l-7.3-1.9c0,0,0,0.2-0.1,0.5c-0.1,0.3-0.2,0.8-0.4,1.3
						c-0.3,1.1-0.7,2.6-1.1,4.1c-0.4,1.5-0.8,2.9-1.1,4.1C1768.6,603.9,1768.3,604.6,1768.3,604.6z"/>
					<path class="st4" d="M1761.1,625.3l7,2.7c0,0,0.1-0.2,0.2-0.5c0.1-0.3,0.3-0.8,0.5-1.3c0.4-1.1,0.9-2.6,1.5-4.1
						c0.5-1.5,1.1-3,1.5-4.1c0.2-0.6,0.4-1,0.5-1.3c0.1-0.3,0.2-0.5,0.2-0.5l-7.1-2.4c0,0-0.1,0.2-0.2,0.5c-0.1,0.3-0.3,0.8-0.5,1.3
						c-0.4,1.1-0.9,2.5-1.4,4c-0.5,1.4-1,2.9-1.4,4c-0.2,0.5-0.4,1-0.5,1.3C1761.2,625.1,1761.1,625.3,1761.1,625.3z"/>
				</g>
			</g>
			<g>
				<g>
					<g>
						<path class="st3" d="M1816.9,573.6c0,0,0.2-1.1,0.5-3.1c0.2-1,0.4-2.2,0.6-3.6c0.1-0.7,0.2-1.4,0.4-2.2
							c0.1-0.8,0.2-1.6,0.3-2.4c0.5-3.4,1-7.4,1.6-11.6c0.4-4.2,0.9-8.8,1.4-13.3c0.4-4.5,0.6-9,0.9-13.3c0.2-2.1,0.2-4.3,0.3-6.3
							c0.1-2,0.1-4,0.2-5.7c0.1-3.6,0.3-6.5,0.1-8.6c-0.1-2.1-0.1-3.2-0.1-3.2l-75,1.3c0,0,0,0.9,0.1,2.5c0.1,1.6,0,3.8-0.1,6.5
							c-0.1,1.3-0.1,2.8-0.2,4.3c-0.1,1.5-0.1,3.1-0.2,4.9c-0.2,3.5-0.5,7.3-0.8,11.1c-0.4,3.7-0.8,7.5-1.1,11
							c-0.5,3.5-0.9,6.7-1.3,9.5c-0.1,0.7-0.2,1.4-0.3,2c-0.1,0.6-0.2,1.2-0.3,1.8c-0.2,1.1-0.4,2.1-0.5,2.9
							c-0.3,1.6-0.4,2.5-0.4,2.5L1816.9,573.6z"/>
					</g>
					<polygon class="st4" points="1782.7,518 1790.2,518.3 1790.6,505.7 1783.1,505.8 					"/>
					<path class="st4" d="M1781,539.9l7.5,0.8c0,0,0.3-3.1,0.6-6.2c0.2-1.6,0.2-3.1,0.3-4.3c0.1-1.2,0.1-1.9,0.1-1.9l-7.5-0.5
						c0,0-0.1,0.8-0.1,1.9c-0.1,1.1-0.2,2.7-0.3,4.2C1781.3,536.9,1781,539.9,1781,539.9z"/>
					<path class="st4" d="M1778.2,561.7l7.4,1.2c0,0,0.1-0.8,0.3-1.9c0.2-1.2,0.4-2.7,0.6-4.3c0.4-3.1,0.8-6.2,0.8-6.2l-7.4-1
						c0,0-0.4,3-0.8,6.1c-0.2,1.5-0.4,3-0.6,4.2C1778.3,560.9,1778.2,561.7,1778.2,561.7z"/>
				</g>
			</g>
			<g>
				<g>
					<g>
						<path class="st3" d="M1823.1,500.2c0,0,0-1.2-0.1-3.2c0-1-0.1-2.3-0.1-3.7c0-0.7-0.1-1.5-0.1-2.3c0-0.8-0.1-1.7-0.1-2.5
							c-0.2-3.4-0.5-7.3-0.8-11.5c-0.1-2.1-0.4-4.3-0.6-6.5c-0.2-2.2-0.4-4.5-0.7-6.7c-0.1-1.1-0.2-2.3-0.3-3.4
							c-0.1-1.1-0.3-2.2-0.4-3.4c-0.3-2.2-0.6-4.4-0.9-6.5c-0.5-4.2-1.2-8.2-1.8-11.6c-0.6-3.4-1-6.2-1.4-8.2
							c-0.4-2-0.6-3.1-0.6-3.1l-73.6,14.5c0,0,0.2,0.9,0.5,2.5c0.4,1.6,0.7,3.9,1.2,6.7c0.5,2.8,1,6,1.5,9.5
							c0.2,1.7,0.5,3.6,0.7,5.4c0.1,0.9,0.2,1.8,0.4,2.8c0.1,0.9,0.2,1.9,0.3,2.8c0.2,1.9,0.4,3.8,0.6,5.6c0.2,1.9,0.4,3.7,0.5,5.5
							c0.2,3.6,0.5,6.9,0.7,9.7c0.2,5.4,0.4,9,0.4,9L1823.1,500.2z"/>
					</g>
					<polygon class="st4" points="1778.7,452.1 1786.2,451 1784.1,438.7 1776.7,440 					"/>
					<path class="st4" d="M1781.3,474l7.5-0.7c0,0-0.3-3.1-0.6-6.2c-0.3-3.1-0.7-6.2-0.7-6.2l-7.4,0.9c0,0,0.4,3,0.7,6.1
						C1781,470.9,1781.3,474,1781.3,474z"/>
					<path class="st4" d="M1782.8,495.9l7.5-0.3c0,0,0-0.8-0.1-2c0-1.2-0.1-2.7-0.2-4.3c-0.2-3.1-0.4-6.2-0.4-6.2l-7.5,0.5
						c0,0,0.2,3.1,0.4,6.1c0.1,1.5,0.2,3.1,0.2,4.2C1782.8,495.1,1782.8,495.9,1782.8,495.9z"/>
				</g>
			</g>
			<g>
				<g>
					<g>
						<path class="st3" d="M1815.2,427.5c0,0-0.2-1.1-0.6-3.1c-0.4-2-0.9-4.8-1.8-8.2c-0.8-3.4-1.7-7.3-2.8-11.5
							c-0.6-2.1-1.2-4.3-1.8-6.5c-0.6-2.2-1.2-4.4-1.9-6.7c-2.7-8.9-5.8-17.8-8.4-24.3c-1.3-3.3-2.4-6-3.2-7.9c-0.8-1.9-1.3-3-1.3-3
							l-68.8,29.8c0,0,0.4,0.8,1,2.3c0.6,1.5,1.4,3.6,2.4,6.1c1.1,2.5,2.1,5.5,3.2,8.7c1.2,3.2,2.2,6.7,3.3,10.2
							c0.6,1.7,1,3.5,1.5,5.3c0.5,1.7,1,3.5,1.4,5.1c0.9,3.3,1.6,6.5,2.2,9.2c0.7,2.7,1.1,5,1.4,6.6c0.3,1.6,0.5,2.5,0.5,2.5
							L1815.2,427.5z"/>
					</g>
					<path class="st4" d="M1762.8,388.2l7-2.6c0,0-0.3-0.7-0.7-1.8c-0.4-1.1-0.9-2.6-1.5-4c-1.2-2.9-2.3-5.8-2.3-5.8l-6.9,2.9
						c0,0,1.1,2.8,2.3,5.7c0.6,1.4,1.1,2.8,1.5,3.9C1762.6,387.5,1762.8,388.2,1762.8,388.2z"/>
					<path class="st4" d="M1769.5,409.1l7.2-2c0,0-0.2-0.8-0.5-1.9c-0.2-0.6-0.3-1.2-0.5-1.9c-0.2-0.7-0.5-1.4-0.7-2.2
						c-0.9-3-1.9-6-1.9-6l-7.1,2.3c0,0,0.9,2.9,1.8,5.8c0.2,0.7,0.5,1.5,0.7,2.1c0.2,0.7,0.4,1.3,0.5,1.9
						C1769.3,408.3,1769.5,409.1,1769.5,409.1z"/>
					<path class="st4" d="M1774.8,430.3l7.3-1.6c0,0-0.2-0.8-0.4-1.9c-0.2-1.2-0.6-2.7-1-4.2c-0.7-3-1.5-6.1-1.5-6.1l-7.3,1.8
						c0,0,0.7,3,1.4,6c0.3,1.5,0.7,3,1,4.1C1774.6,429.6,1774.8,430.3,1774.8,430.3z"/>
				</g>
			</g>
			<g>
				<g>
					<g>
						<path class="st3" d="M1793.3,356.3c0,0-0.5-1.1-1.3-3c-0.8-1.9-2-4.6-3.6-7.8c-1.6-3.2-3.3-6.9-5.4-10.8c-1-2-2.1-4-3.2-6
							c-1.2-2-2.4-4.1-3.6-6.1c-0.6-1-1.2-2.1-1.8-3.1c-0.6-1-1.3-2-1.9-3c-1.2-2-2.5-3.9-3.7-5.8c-1.3-1.9-2.5-3.6-3.6-5.4
							c-1.1-1.7-2.2-3.3-3.3-4.8c-2.1-2.9-3.8-5.4-5.2-7c-1.3-1.7-2-2.6-2-2.6l-59.1,46.2c0,0,0.5,0.7,1.5,1.9c1,1.2,2.2,3,3.8,5.1
							c0.8,1.1,1.6,2.2,2.4,3.5c0.9,1.3,1.8,2.6,2.7,4c0.9,1.4,1.8,2.9,2.7,4.4c0.5,0.7,0.9,1.5,1.4,2.2c0.4,0.8,0.9,1.5,1.3,2.3
							c0.9,1.5,1.8,3.1,2.7,4.6c0.8,1.6,1.6,3.1,2.4,4.6c1.6,2.9,2.9,5.8,4.1,8.2c1.2,2.4,2.1,4.5,2.7,5.9c0.6,1.4,1,2.3,1,2.3
							L1793.3,356.3z"/>
					</g>
					<path class="st4" d="M1733.2,329.5l6.2-4.2c0,0-0.4-0.7-1.1-1.6c-0.7-1-1.5-2.3-2.5-3.6c-1.9-2.5-3.7-5.1-3.7-5.1l-6,4.5
						c0,0,1.8,2.5,3.6,4.9c0.9,1.2,1.7,2.5,2.4,3.5C1732.7,328.9,1733.2,329.5,1733.2,329.5z"/>
					<path class="st4" d="M1744.7,348.2l6.6-3.6c0,0-1.6-2.7-3.2-5.4c-1.5-2.7-3.2-5.4-3.2-5.4l-6.4,4c0,0,1.7,2.6,3.2,5.2
						C1743.1,345.5,1744.7,348.2,1744.7,348.2z"/>
					<path class="st4" d="M1754.5,367.7l6.8-3.1c0,0-0.3-0.7-0.8-1.8c-0.5-1.1-1.2-2.5-1.9-3.9c-0.7-1.4-1.4-2.8-1.9-3.9
						c-0.5-1.1-0.9-1.8-0.9-1.8l-6.7,3.4c0,0,0.3,0.7,0.8,1.7c0.5,1,1.2,2.4,1.8,3.8c0.7,1.4,1.3,2.8,1.8,3.8
						C1754.2,367,1754.5,367.7,1754.5,367.7z"/>
				</g>
			</g>
			<g>
				<g>
					<g>
						<path class="st3" d="M1754.8,290.9c0,0-0.7-0.9-2-2.6c-1.3-1.7-3.3-4-5.6-6.7c-4.7-5.5-11.3-12.6-18.2-19.3
							c-6.9-6.7-14.1-12.8-19.4-17.2c-2.7-2.2-4.9-4-6.5-5.2c-1.6-1.2-2.5-1.9-2.5-1.9l-45.8,59.4c0,0,0.7,0.6,2,1.6
							c1.3,1,3.2,2.5,5.3,4.2c4.3,3.5,9.8,8.2,14.9,13.1c5.1,4.9,9.8,10,13.2,14c1.7,2,3.1,3.7,4,4.9c0.9,1.2,1.5,1.9,1.5,1.9
							L1754.8,290.9z"/>
					</g>
					<path class="st4" d="M1689.4,280.6l4.9-5.7c0,0-0.6-0.5-1.5-1.3c-0.9-0.8-2.1-1.8-3.3-2.8c-1.2-1-2.4-2-3.3-2.7
						c-0.9-0.7-1.5-1.2-1.5-1.2l-4.7,5.9c0,0,0.6,0.5,1.5,1.2c0.9,0.7,2.1,1.7,3.3,2.7c1.2,1,2.4,1.9,3.2,2.7
						C1688.8,280.1,1689.4,280.6,1689.4,280.6z"/>
					<path class="st4" d="M1705.4,295.5l5.3-5.3c0,0-2.2-2.2-4.5-4.4c-2.3-2.2-4.6-4.3-4.6-4.3l-5.1,5.5c0,0,2.2,2.1,4.5,4.2
						C1703.3,293.4,1705.4,295.5,1705.4,295.5z"/>
					<path class="st4" d="M1720,311.8l5.8-4.7c0,0-2-2.4-4-4.8c-2.1-2.4-4.2-4.7-4.2-4.7l-5.5,5c0,0,2,2.3,4.1,4.6
						C1718.1,309.4,1720,311.8,1720,311.8z"/>
				</g>
			</g>
			<g>
				<g>
					<g>
						<path class="st3" d="M1700.6,238c0,0-0.9-0.7-2.5-1.9c-1.6-1.2-3.8-2.9-6.4-4.8c-5.3-3.9-12.3-8.9-19-13.7
							c-6.7-4.8-13.1-9.5-17.7-13c-2.3-1.7-4.2-3.2-5.5-4.2c-1.3-1-2.1-1.6-2.1-1.6l-46.5,58.8c0,0,0.9,0.7,2.4,1.9
							c1.6,1.2,3.8,3,6.4,4.9c5.3,4,12.4,9.2,19.2,14.1c6.8,4.9,13.4,9.6,18.1,13.1c2.4,1.8,4.3,3.2,5.6,4.2c1.3,1,2.1,1.6,2.1,1.6
							L1700.6,238z"/>
					</g>
					<path class="st4" d="M1636.3,240.8l4.5-6c0,0-0.6-0.5-1.5-1.1c-0.9-0.7-2.2-1.6-3.4-2.5c-1.2-0.9-2.4-1.8-3.4-2.5
						c-0.9-0.7-1.5-1.2-1.5-1.2l-4.6,5.9c0,0,0.6,0.5,1.5,1.2c0.9,0.7,2.2,1.6,3.4,2.6c1.2,0.9,2.5,1.9,3.4,2.6
						C1635.7,240.3,1636.3,240.8,1636.3,240.8z"/>
					<polygon class="st4" points="1654.3,253.8 1658.6,247.7 1648.6,240.5 1644.2,246.6 					"/>
					<path class="st4" d="M1672,266.8l4.5-6c0,0-0.6-0.5-1.6-1.2c-0.9-0.7-2.2-1.6-3.4-2.5c-2.5-1.8-5-3.7-5-3.7l-4.4,6.1
						c0,0,2.5,1.8,5,3.6c1.2,0.9,2.5,1.8,3.4,2.5C1671.4,266.3,1672,266.8,1672,266.8z"/>
				</g>
			</g>
			<g>
				<g>
					<g>
						<path class="st3" d="M1647.4,198.8c0,0-0.7-0.6-2-1.6c-1.3-1-3.1-2.5-5.2-4.3c-4.3-3.6-9.8-8.4-15-13.5
							c-2.6-2.5-5.1-5.1-7.5-7.6c-2.3-2.5-4.5-4.8-6.3-6.9c-1.8-2-3.3-3.7-4.3-5c-1-1.2-1.6-1.9-1.6-1.9l-57.9,47.6
							c0,0,0.7,0.9,2.1,2.5c1.3,1.6,3.2,3.8,5.5,6.4c2.3,2.7,5.1,5.7,8.1,8.9c3.1,3.2,6.3,6.6,9.7,9.8c6.7,6.5,13.7,12.7,19,17.1
							c2.6,2.2,4.9,4,6.4,5.3c1.6,1.2,2.4,2,2.4,2L1647.4,198.8z"/>
					</g>
					<path class="st4" d="M1585.9,196.7l5.5-5.1c0,0-0.5-0.6-1.3-1.4c-0.8-0.8-1.8-2-2.8-3.1c-1-1.1-2-2.3-2.8-3.1
						c-0.8-0.9-1.2-1.4-1.2-1.4l-5.7,4.9c0,0,0.5,0.6,1.3,1.5c0.8,0.9,1.8,2.1,2.8,3.2c1,1.2,2.1,2.3,2.9,3.2
						C1585.4,196.1,1585.9,196.7,1585.9,196.7z"/>
					<path class="st4" d="M1601.7,212.5l5.1-5.5c0,0-0.6-0.5-1.4-1.3c-0.8-0.8-1.9-1.8-3-2.9c-1.1-1.1-2.2-2.1-3-2.9
						c-0.8-0.8-1.3-1.4-1.3-1.4l-5.3,5.3c0,0,0.5,0.6,1.4,1.4c0.8,0.8,2,1.9,3.1,3c1.1,1.1,2.2,2.2,3.1,3
						C1601.1,212,1601.7,212.5,1601.7,212.5z"/>
					<path class="st4" d="M1618.5,227.1l4.7-5.8c0,0-0.6-0.5-1.5-1.2c-0.9-0.7-2-1.7-3.2-2.7c-2.4-1.9-4.6-4-4.6-4l-4.9,5.7
						c0,0,2.3,2.1,4.7,4.1c1.2,1,2.4,2,3.3,2.7C1617.9,226.6,1618.5,227.1,1618.5,227.1z"/>
				</g>
			</g>
			<g>
				<g>
					<g>
						<path class="st3" d="M1605.5,158.1c0,0-0.6-0.7-1.6-1.9c-1-1.3-2.4-3.1-4.1-5.2c-3.3-4.4-7.7-10.3-11.7-16.5
							c-0.5-0.8-1-1.5-1.5-2.3c-0.5-0.8-1-1.6-1.4-2.3c-1-1.5-1.9-3.1-2.8-4.5c-1.9-2.9-3.4-5.8-4.8-8.2c-0.7-1.2-1.3-2.3-1.9-3.3
							c-0.5-1-1-1.9-1.4-2.6c-0.7-1.4-1.2-2.3-1.2-2.3l-66.5,34.7c0,0,0.5,1,1.5,2.8c0.5,0.9,1,2,1.7,3.2c0.7,1.2,1.5,2.6,2.3,4.1
							c1.7,3,3.6,6.6,6,10.3c1.1,1.9,2.3,3.8,3.5,5.7c0.6,1,1.2,2,1.8,2.9c0.6,1,1.3,1.9,1.9,2.9c5.1,7.8,10.6,15.3,14.8,20.9
							c2.2,2.8,3.9,5.1,5.2,6.7c1.3,1.6,2.1,2.5,2.1,2.5L1605.5,158.1z"/>
					</g>
					<path class="st4" d="M1546,142.8l6.5-3.8c0,0-1.5-2.6-3-5.3c-0.8-1.3-1.5-2.6-2.1-3.6c-0.6-1-0.9-1.7-0.9-1.7l-6.6,3.6
						c0,0,0.3,0.7,0.9,1.7c0.6,1,1.3,2.4,2.1,3.7C1544.5,140.1,1546,142.8,1546,142.8z"/>
					<path class="st4" d="M1558,161.7l6.2-4.2c0,0-1.7-2.5-3.4-5.1c-0.8-1.3-1.7-2.5-2.3-3.5c-0.6-1-1-1.6-1-1.6l-6.3,4
						c0,0,0.4,0.7,1,1.7c0.6,1,1.5,2.3,2.4,3.6C1556.3,159.1,1558,161.7,1558,161.7z"/>
					<path class="st4" d="M1571.2,179.6l5.9-4.7c0,0-1.9-2.4-3.7-4.8c-0.9-1.2-1.8-2.4-2.5-3.4c-0.7-0.9-1.1-1.5-1.1-1.5l-6.1,4.4
						c0,0,0.5,0.6,1.1,1.6c0.7,0.9,1.6,2.2,2.5,3.4C1569.3,177.1,1571.2,179.6,1571.2,179.6z"/>
				</g>
			</g>
			<g>
				<g>
					<g>
						<path class="st3" d="M1573.2,109c0,0-0.4-0.8-1.2-2.3c-0.4-0.7-0.8-1.6-1.4-2.6c-0.5-1-1-2.2-1.6-3.4
							c-2.4-5-5.5-11.8-8.3-18.7c-1.4-3.5-2.8-6.9-4-10.3c-1.2-3.3-2.4-6.4-3.2-9.1c-0.9-2.7-1.6-4.9-2.1-6.5
							c-0.3-0.8-0.5-1.4-0.6-1.8c-0.1-0.4-0.2-0.7-0.2-0.7L1479,75.9c0,0,0.1,0.3,0.2,0.8c0.1,0.5,0.4,1.3,0.7,2.2
							c0.6,1.9,1.5,4.6,2.6,7.8c1,3.3,2.5,7,3.9,11c1.4,4,3.2,8.3,4.9,12.5c3.4,8.5,7.2,16.9,10.3,23.1c0.7,1.6,1.4,3,2,4.3
							c0.6,1.2,1.2,2.3,1.7,3.2c0.9,1.8,1.5,2.8,1.5,2.8L1573.2,109z"/>
					</g>
					<path class="st4" d="M1517.8,82.1l7.1-2.5c0,0-0.3-0.7-0.7-1.8c-0.4-1.1-0.9-2.5-1.4-4c-1-2.9-1.9-5.8-1.9-5.8l-7.1,2.3
						c0,0,1,3,1.9,5.9c0.5,1.5,1,2.9,1.4,4C1517.5,81.4,1517.8,82.1,1517.8,82.1z"/>
					<path class="st4" d="M1525.9,102.9l6.9-2.9c0,0-1.2-2.8-2.3-5.6c-1.1-2.8-2.3-5.7-2.3-5.7l-7,2.7c0,0,1.2,2.9,2.3,5.8
						C1524.7,100.1,1525.9,102.9,1525.9,102.9z"/>
					<path class="st4" d="M1535.3,123.1l6.7-3.4c0,0-0.1-0.2-0.2-0.5c-0.2-0.3-0.4-0.7-0.6-1.2c-0.5-1-1.1-2.4-1.8-3.8
						c-1.3-2.7-2.6-5.5-2.6-5.5l-6.8,3.1c0,0,1.3,2.8,2.7,5.6c0.7,1.4,1.3,2.8,1.8,3.9c0.2,0.5,0.5,1,0.6,1.3
						C1535.2,122.9,1535.3,123.1,1535.3,123.1z"/>
				</g>
			</g>
			<g>
				<g>
					<g>
						<path class="st3" d="M1550.6,53.7c0,0-1.1-3.6-2.7-9.1c-0.7-2.7-1.6-6-2.5-9.4c-0.8-3.5-1.7-7.2-2.6-10.9
							c-0.8-3.7-1.6-7.5-2.3-11c-0.7-3.5-1.3-6.8-1.8-9.7c-0.9-5.7-1.6-9.5-1.6-9.5l-74.1,11.5c0,0,0.7,4.4,1.8,11
							c0.6,3.3,1.3,7.2,2.1,11.3c0.8,4.1,1.8,8.5,2.7,12.9c1.1,4.4,2.1,8.8,3.1,12.9c1.1,4.1,2.1,7.9,3,11.2
							c1.9,6.5,3.2,10.9,3.2,10.9L1550.6,53.7z"/>
					</g>
					<path class="st4" d="M1500.4,17.5l7.4-1.4c0,0-0.6-3-1.1-6c-0.5-3-1-6-1-6l-7.4,1.2c0,0,0.5,3.1,1,6.1
						C1499.8,14.5,1500.4,17.5,1500.4,17.5z"/>
					<path class="st4" d="M1505.1,39.3l7.3-1.8c0,0-0.7-3-1.4-5.9c-0.6-3-1.3-6-1.3-6l-7.3,1.6c0,0,0.7,3,1.3,6.1
						C1504.3,36.3,1505.1,39.3,1505.1,39.3z"/>
					<path class="st4" d="M1510.8,60.8l7.2-2.1c0,0-0.2-0.7-0.5-1.8c-0.3-1.1-0.8-2.6-1.2-4c-0.8-2.9-1.6-5.9-1.6-5.9l-7.3,1.9
						c0,0,0.8,3,1.6,6c0.4,1.5,0.9,3,1.2,4.1C1510.6,60,1510.8,60.8,1510.8,60.8z"/>
				</g>
			</g>
		</g>
	</g>
</g>
</svg>
