<?xml version="1.0" encoding="utf-8"?>
<!-- Generator: Adobe Illustrator 19.2.0, SVG Export Plug-In . SVG Version: 6.00 Build 0)  -->
<svg version="1.1" id="Layer_1" xmlns="http://www.w3.org/2000/svg" xmlns:xlink="http://www.w3.org/1999/xlink" x="0px" y="0px"
	 viewBox="0 0 1000 1000" style="enable-background:new 0 0 1000 1000;" xml:space="preserve">
<style type="text/css">
	.st0{fill:#CCCCCC;}
	.st1{fill:#B3B3B3;}
	.st2{fill:#808080;}
</style>
<g>
	<g>
		<g>
			<path class="st0" d="M882.1,597.6c-267.3,15.3-535.3,14.5-802.5-2.3C86.1,492.6,92.5,389.9,99,287.2c222,14,444.5,16.3,666.6,7.1
				C802.9,395.7,841.7,496.8,882.1,597.6z"/>
			<path class="st0" d="M924.5,661.4c-282.7,17.8-566.3,17.8-849.1,0c4-63.8,8-127.6,12-191.4c274.7,17.3,550.3,17.3,825,0
				C916.5,533.8,920.5,597.6,924.5,661.4z"/>
		</g>
		<path class="st1" d="M625.2,481.8c-131.6,2.5-263.2,1.1-394.7-4.3c1.6-38,3.1-75.9,4.7-113.9c129.2,5.3,258.6,6.7,387.9,4.3
			C623.7,405.8,624.5,443.8,625.2,481.8z"/>
	</g>
</g>
<g>
	<path class="st2" d="M184.2,662c2.1-27.9,26.2-49,53.9-49c27.7,0,51.8,21.1,53.9,49c2.1,27.9-22,52.4-53.9,52.4
		C206.2,714.4,182.1,689.9,184.2,662z"/>
</g>
<g>
	<path class="st2" d="M661.2,662c2.1-27.9,26.2-49,53.9-49c27.7,0,51.8,21.1,53.9,49c2.1,27.9-22,52.4-53.9,52.4
		C683.2,714.4,659.1,689.9,661.2,662z"/>
</g>
</svg>
